<?xml version="1.0" encoding="UTF-8"?><!DOCTYPE svg PUBLIC "-//W3C//DTD SVG 1.1//EN" "http://www.w3.org/Graphics/SVG/1.1/DTD/svg11.dtd"><svg xmlns="http://www.w3.org/2000/svg"><symbol id="arrow--white" viewBox="0 0 17 17"><path fill="#FFF" fill-rule="evenodd" d="M16.65 8.13l-8.34 8.01-2.1-2.37 4.5-3.96H0V6.33h10.71l-4.5-3.96L8.31 0l8.34 8.01z"/></symbol><symbol id="arrow-left--green-light" viewBox="0 0 17 17"><path fill="#99C221" fill-rule="evenodd" d="M0 8.01L8.34 0l2.1 2.37-4.5 3.96h10.71v3.48H5.94l4.5 3.96-2.1 2.37L0 8.13z"/></symbol><symbol id="arrow-left--green" viewBox="0 0 17 17"><path fill="#6DAD44" fill-rule="evenodd" d="M0 8.01L8.34 0l2.1 2.37-4.5 3.96h10.71v3.48H5.94l4.5 3.96-2.1 2.37L0 8.13z"/></symbol><symbol id="arrow-left--white" viewBox="0 0 17 17"><path fill="#FFF" fill-rule="evenodd" d="M0 8.01L8.34 0l2.1 2.37-4.5 3.96h10.71v3.48H5.94l4.5 3.96-2.1 2.37L0 8.13z"/></symbol><symbol id="arrow-right--gray" viewBox="0 0 17 17"><path fill="#4C4D4F" fill-rule="evenodd" d="M16.65 8.13l-8.34 8.01-2.1-2.37 4.5-3.96H0V6.33h10.71l-4.5-3.96L8.31 0l8.34 8.01z"/></symbol><symbol id="arrow-right--green-light" viewBox="0 0 17 17"><path fill="#51832f" fill-rule="evenodd" d="M16.65 8.13l-8.34 8.01-2.1-2.37 4.5-3.96H0V6.33h10.71l-4.5-3.96L8.31 0l8.34 8.01z"/></symbol><symbol id="arrow-right--green" viewBox="0 0 17 17"><path fill="#6DAD44" fill-rule="evenodd" d="M16.65 8.13l-8.34 8.01-2.1-2.37 4.5-3.96H0V6.33h10.71l-4.5-3.96L8.31 0l8.34 8.01z"/></symbol><symbol id="arrow-right--white" viewBox="0 0 17 17"><path fill="#FFF" fill-rule="evenodd" d="M16.65 8.13l-8.34 8.01-2.1-2.37 4.5-3.96H0V6.33h10.71l-4.5-3.96L8.31 0l8.34 8.01z"/></symbol><symbol id="arrow-right" viewBox="0 0 17 17"><path fill="inherit" fill-rule="evenodd" d="M16.65 8.13l-8.34 8.01-2.1-2.37 4.5-3.96H0V6.33h10.71l-4.5-3.96L8.31 0l8.34 8.01z"/></symbol><symbol id="arrow-up" viewBox="0 0 10 5"><path d="M0 5l5-5 5 5z" fill="#7A7D81" fill-rule="evenodd"/></symbol><symbol id="arrow" viewBox="0 0 24 24"><title>Arrow</title><path fill="inherit" d="M14.8 6.5c-.2-.2-.6-.2-.8 0-.2.2-.2.6 0 .8l4.1 4.1H4.6c-.4 0-.6.3-.6.6s.2.6.6.6h13.5l-4.1 4c-.2.2-.2.6 0 .8.2.2.6.2.8 0l5.1-5.1c.2-.2.2-.6 0-.8l-5.1-5z"/></symbol><symbol id="close"><g fill="#6DAD44" fill-rule="evenodd"><path d="M-.02 21.192L21.191-.02l2.829 2.829L2.808 24.02z"/><path d="M21.192 24.02L-.02 2.809l2.828-2.83L24.02 21.192z"/></g></symbol><symbol id="download--white" viewBox="0 0 20 22"><g fill="#FFF" fill-rule="evenodd"><path d="M0 19h20v3H0zM18.14 8.31l-2.37-2.1-3.96 4.5V0H8.33v10.71l-3.96-4.5L2 8.31l8.01 8.34h.12z"/></g></symbol><symbol id="error"><path fill="#FFF" d="M12 0C5.4 0 0 5.4 0 12s5.4 12 12 12 12-5.4 12-12S18.6 0 12 0zm4.8 14.7c.3.3.3.8 0 1.1l-1.1 1.1c-.3.3-.8.3-1.1 0L12 14.1l-2.7 2.7c-.3.3-.8.3-1.1 0l-1.1-1.1c-.3-.3-.3-.8 0-1.1L9.9 12 7.2 9.3c-.3-.3-.3-.8 0-1.1l1.1-1.1c.3-.3.8-.3 1.1 0L12 9.9l2.7-2.7c.3-.3.8-.3 1.1 0l1.1 1.1c.3.3.3.8 0 1.1L14.1 12l2.7 2.7z"/></symbol><symbol id="facebook" viewBox="0 0 12 23"><path fill="#51832f" fill-rule="evenodd" d="M11.844.59v3.535H9.74c-.768 0-1.286.16-1.553.482-.268.322-.402.804-.402 1.447v2.53h3.924l-.523 3.965H7.787v10.165H3.688V12.55H.272V8.585h3.415v-2.92c0-1.66.465-2.948 1.393-3.864C6.01.886 7.246.43 8.79.43c1.313 0 2.33.053 3.054.16z"/></symbol><symbol id="info" viewBox="0 0 20 20"><g fill="none" fill-rule="evenodd"><path d="M-2-2h24v24H-2z"/><path d="M9 5h2v2H9V5zm0 4h2v6H9V9zm1-9C4.48 0 0 4.48 0 10s4.48 10 10 10 10-4.48 10-10S15.52 0 10 0zm0 18c-4.41 0-8-3.59-8-8s3.59-8 8-8 8 3.59 8 8-3.59 8-8 8z" fill="#1D1D1D"/></g></symbol><symbol id="instagram" viewBox="0 0 21 21"><path fill="#51832f" fill-rule="evenodd" d="M18.241 17.527V8.848h-1.808c.179.563.268 1.148.268 1.755a5.934 5.934 0 0 1-.857 3.114 6.249 6.249 0 0 1-2.33 2.256 6.435 6.435 0 0 1-3.215.83c-1.759 0-3.263-.604-4.513-1.814S3.91 12.317 3.91 10.603c0-.607.089-1.192.268-1.755H2.29v8.679a.79.79 0 0 0 .235.582.79.79 0 0 0 .582.235h14.317a.797.797 0 0 0 .576-.235.78.78 0 0 0 .241-.582zm-3.803-7.139c0-1.107-.405-2.05-1.213-2.832-.808-.781-1.783-1.172-2.926-1.172-1.134 0-2.105.39-2.913 1.172-.808.781-1.212 1.725-1.212 2.832 0 1.108.404 2.052 1.212 2.833.808.781 1.78 1.172 2.913 1.172 1.143 0 2.118-.39 2.926-1.172.808-.781 1.213-1.725 1.213-2.833zm3.803-4.821v-2.21c0-.25-.09-.466-.268-.65a.881.881 0 0 0-.656-.274h-2.33a.881.881 0 0 0-.657.275.899.899 0 0 0-.268.65v2.209c0 .259.09.478.268.656a.892.892 0 0 0 .657.268h2.33c.259 0 .478-.09.656-.268a.892.892 0 0 0 .268-.656zm2.33-2.786v15.295a2.54 2.54 0 0 1-.776 1.861 2.54 2.54 0 0 1-1.862.777H2.638a2.54 2.54 0 0 1-1.861-.776A2.54 2.54 0 0 1 0 18.075V2.78C0 2.058.259 1.438.777.92A2.54 2.54 0 0 1 2.638.143h15.295a2.54 2.54 0 0 1 1.862.777 2.54 2.54 0 0 1 .776 1.861z"/></symbol><symbol id="linkedin" viewBox="0 0 21 21"><path fill="#fff" d="M21 2.625A2.626 2.626 0 0 0 18.375 0H2.625A2.626 2.626 0 0 0 0 2.625v15.75A2.626 2.626 0 0 0 2.625 21h15.75A2.626 2.626 0 0 0 21 18.375zm0 0" fill-rule="evenodd"/><path fill="#4c4d4f" d="M2.504 7.328h3.52V17.91h-3.52zm0 0" fill-rule="evenodd"/><path fill="#4c4d4f" d="M4.285 2.227c-1.203 0-1.988.789-1.988 1.828 0 1.015.762 1.828 1.941 1.828h.024c1.226 0 1.992-.813 1.992-1.828-.024-1.04-.766-1.828-1.969-1.828zm0 0M14.652 7.078c-1.863 0-2.699 1.027-3.168 1.746V7.328H7.97c.047.992 0 10.582 0 10.582h3.515V12c0-.316.024-.633.118-.86.253-.632.832-1.285 1.804-1.285 1.27 0 1.781.97 1.781 2.391v5.664h3.516v-6.07c0-3.25-1.734-4.762-4.05-4.762zm0 0"/></symbol><symbol id="remove" viewBox="0 0 8 8"><g fill="#4C4D4F" fill-rule="evenodd"><path d="M.053 7l7-7 .893.894-7 7z"/><path d="M7.054 7.893l-7-7L.947.002l7 7z"/></g></symbol><symbol id="search" viewBox="0 0 24 24"><g fill="none" fill-rule="evenodd"><path stroke="#51832f" stroke-width="3.79" d="M14.421 16.4C18.607 16.4 22 13.176 22 9.2S18.607 2 14.421 2 6.842 5.224 6.842 9.2s3.393 7.2 7.58 7.2z"/><path fill="#51832f" d="M7.495 13.72l2.68 2.68-7.38 7.379-2.68-2.68z"/></g></symbol><symbol id="star" viewBox="0 0 576 512"><path d="M259.3 17.8L194 150.2 47.9 171.5c-26.2 3.8-36.7 36.1-17.7 54.6l105.7 103-25 145.5c-4.5 26.3 23.2 46 46.4 33.7L288 439.6l130.7 68.7c23.2 12.2 50.9-7.4 46.4-33.7l-25-145.5 105.7-103c19-18.5 8.5-50.8-17.7-54.6L382 150.2 316.7 17.8c-11.7-23.6-45.6-23.9-57.4 0z" class="star"/></symbol><symbol id="status"><path fill="#FFF" d="M12 0C5.4 0 0 5.4 0 12s5.4 12 12 12 12-5.4 12-12S18.6 0 12 0zm6.4 9.3L12 15.7l-1.2 1.2c-.3.3-.7.3-.9 0l-4.3-4.3c-.3-.3-.3-.7 0-1l1.2-1.2c.3-.3.7-.3 1 0l2.7 2.7 5.9-5.9c.3-.3.7-.3.9 0l1.2 1.2c.2.2.2.6-.1.9z"/></symbol><symbol id="twitter" viewBox="0 0 22 18"><path fill="#51832f" fill-rule="evenodd" d="M21.696 2.893a9.065 9.065 0 0 1-2.17 2.236 12.289 12.289 0 0 1-.496 4.038 12.56 12.56 0 0 1-1.546 3.329 13.083 13.083 0 0 1-2.47 2.819c-.956.817-2.108 1.468-3.456 1.955-1.348.487-2.79.73-4.326.73-2.42 0-4.634-.647-6.643-1.942.313.036.661.054 1.045.054 2.009 0 3.799-.616 5.37-1.849a4.218 4.218 0 0 1-2.517-.863 4.231 4.231 0 0 1-1.527-2.137c.294.045.567.067.817.067.384 0 .763-.049 1.138-.147A4.256 4.256 0 0 1 2.431 9.69a4.18 4.18 0 0 1-.985-2.752v-.054c.608.34 1.26.522 1.956.549a4.32 4.32 0 0 1-1.406-1.54 4.215 4.215 0 0 1-.523-2.063c0-.785.197-1.513.59-2.183a12.263 12.263 0 0 0 3.944 3.195c1.549.799 3.207 1.243 4.975 1.332a4.805 4.805 0 0 1-.107-.991c0-1.196.422-2.216 1.266-3.06.843-.844 1.863-1.266 3.06-1.266 1.25 0 2.303.455 3.16 1.366a8.482 8.482 0 0 0 2.746-1.044c-.33 1.026-.964 1.821-1.902 2.383a8.62 8.62 0 0 0 2.491-.67z"/></symbol><symbol id="user" viewBox="0 0 24 24"><style>.st0{fill:red}</style><path class="st0" d="M1.3 24v-2c0-3.9 3.2-7.1 7.1-7.1h7.1c3.9 0 7.1 3.2 7.1 7.1v2H1.3z"/><circle class="st0" cx="12.3" cy="6.6" r="6.6"/></symbol><symbol id="warning"><path fill="#FFF" d="M23.7 19.3L14 2.4c-.9-1.5-3.1-1.5-3.9 0L.3 19.3c-.9 1.5.2 3.4 2 3.4h19.4c1.8 0 2.9-1.9 2-3.4zM13.5 18c0 .6-.4 1-1 1h-1c-.6 0-1-.4-1-1v-6c0-.6.4-1 1-1h1c.6 0 1 .4 1 1v6zM12 10c-.8 0-1.5-.7-1.5-1.5S11.2 7 12 7s1.5.7 1.5 1.5S12.8 10 12 10z"/></symbol><symbol id="youtube-square" viewBox="0 0 448 512"><path fill="#51832f" d="M186.8 202.1l95.2 54.1-95.2 54.1V202.1zM448 80v352c0 26.5-21.5 48-48 48H48c-26.5 0-48-21.5-48-48V80c0-26.5 21.5-48 48-48h352c26.5 0 48 21.5 48 48zm-42 176.3s0-59.6-7.6-88.2c-4.2-15.8-16.5-28.2-32.2-32.4C337.9 128 224 128 224 128s-113.9 0-142.2 7.7c-15.7 4.2-28 16.6-32.2 32.4-7.6 28.5-7.6 88.2-7.6 88.2s0 59.6 7.6 88.2c4.2 15.8 16.5 27.7 32.2 31.9C110.1 384 224 384 224 384s113.9 0 142.2-7.7c15.7-4.2 28-16.1 32.2-31.9 7.6-28.5 7.6-88.1 7.6-88.1z"/></symbol><symbol id="youtube" viewBox="0 0 576 512"><path fill="#51832f" d="M549.655 124.083c-6.281-23.65-24.787-42.276-48.284-48.597C458.781 64 288 64 288 64S117.22 64 74.629 75.486c-23.497 6.322-42.003 24.947-48.284 48.597-11.412 42.867-11.412 132.305-11.412 132.305s0 89.438 11.412 132.305c6.281 23.65 24.787 41.5 48.284 47.821C117.22 448 288 448 288 448s170.78 0 213.371-11.486c23.497-6.321 42.003-24.171 48.284-47.821 11.412-42.867 11.412-132.305 11.412-132.305s0-89.438-11.412-132.305zm-317.51 213.508V175.185l142.739 81.205-142.739 81.201z"/></symbol></svg>