<svg version="1.1" xmlns="http://www.w3.org/2000/svg" xmlns:xlink="http://www.w3.org/1999/xlink" x="0px" y="0px"
	 viewBox="0 0 240.5 60" width="240" height="60" style="enable-background:new 0 0 240.5 60;" xml:space="preserve">
<style type="text/css">
	.st0{fill:#C91B76;}
	.st1{fill:#FFA44A;}
	.st2{opacity:0.5;}
	.st3{fill:#E9515A;}
	.st4{fill:#7F6F70;}
</style>
<g>
	<g>
		<circle class="st0" cx="45.3" cy="51.9" r="8.1"/>
		<circle class="st1" cx="15.3" cy="8.1" r="8.1"/>
		<path class="st0" d="M23.7,29.7c1.9-1.9,8.2-8.3,13.3-13.5c0,0,0,0,0,0c-3.8-3.8-10-3.8-13.8,0c0,0-17,17.2-20.4,20.6
			c-3.8,3.8-3.8,10,0,13.8c3.8,3.8,10,3.8,13.8,0c1.5-1.5,3.7-3.8,7.1-7.1C19.9,39.6,19.9,33.5,23.7,29.7z"/>
		<path class="st1" d="M57.9,9c-3.8-3.8-10-3.8-13.8,0c0,0-3.2,3.2-7.1,7.1c3.8,3.8,3.8,9.9,0,13.7c0,0-2.9,2.9-6.9,6.9
			c-2.6,2.6-4.7,4.7-6.5,6.5c0,0,0,0,0,0.1c3.8,3.8,10,3.8,13.8,0c2.4-2.4,6.2-6.3,13.6-13.7c3.9-4,6.9-6.9,6.9-6.9
			C61.7,19,61.7,12.8,57.9,9z"/>
		<path class="st2" d="M37.1,29.9c3.8-3.8,3.8-9.9,0-13.7C32,21.4,25.7,27.7,23.7,29.7c-3.8,3.8-3.8,9.9,0,13.7
			c1.8-1.8,3.9-4,6.5-6.5C34.1,32.9,37.1,29.9,37.1,29.9z"/>
		<path class="st3" d="M37.1,29.9c3.8-3.8,3.8-9.9,0-13.7C32,21.4,25.7,27.7,23.7,29.7c-3.8,3.8-3.8,9.9,0,13.7
			c1.8-1.8,3.9-4,6.5-6.5C34.1,32.9,37.1,29.9,37.1,29.9z"/>
	</g>
	<g>
		<path class="st4" d="M73.3,38.2l2.6-0.5V25.4l-2.3-2V22l6-1.9l1.2,0.4v17.2l2.7,0.4v2H73.3V38.2z M77.8,16.7
			c-0.4,0-0.8-0.1-1.1-0.2c-0.4-0.1-0.7-0.3-1-0.5c-0.3-0.2-0.5-0.5-0.7-0.9c-0.2-0.3-0.3-0.7-0.3-1.2c0-0.5,0.1-0.9,0.3-1.3
			c0.2-0.4,0.5-0.8,0.8-1.1c0.3-0.3,0.7-0.5,1.2-0.7c0.4-0.2,0.8-0.3,1.3-0.3c0.5,0,1,0.1,1.3,0.2c0.4,0.2,0.7,0.4,0.9,0.6
			c0.2,0.3,0.4,0.5,0.5,0.9c0.1,0.3,0.2,0.7,0.2,1.1c0,0.5-0.1,1-0.3,1.4c-0.2,0.4-0.5,0.8-0.8,1c-0.3,0.3-0.7,0.5-1.1,0.7
			C78.6,16.6,78.2,16.7,77.8,16.7z"/>
		<path class="st4" d="M86.3,38.2l2.3-0.4V25.1l-2.4-1.5v-1.7l5.7-1.7l1.1,0.3v2.5c0.4-0.4,0.9-0.8,1.5-1.1c0.6-0.3,1.2-0.7,1.8-0.9
			c0.6-0.3,1.3-0.5,1.9-0.6c0.7-0.2,1.3-0.2,2-0.2c1.1,0,2,0.1,2.7,0.5c0.7,0.3,1.3,0.8,1.8,1.5c0.4,0.7,0.8,1.5,1,2.5
			c0.2,1,0.3,2.2,0.3,3.5v9.6l2.6,0.4v2H98.3v-2l2.5-0.5v-8.8c0-1,0-1.8-0.1-2.5c-0.1-0.7-0.3-1.2-0.5-1.7c-0.3-0.4-0.7-0.7-1.1-0.9
			c-0.5-0.2-1.1-0.3-1.9-0.3c-0.2,0-0.5,0-0.8,0.1c-0.3,0.1-0.6,0.1-0.9,0.2c-0.3,0.1-0.7,0.2-1,0.4c-0.3,0.2-0.6,0.3-0.9,0.5v13
			l2.3,0.4v2h-9.6V38.2z"/>
		<path class="st4" d="M113.1,23.4h-2.7v-1.7c0.4-0.1,0.8-0.2,1.1-0.2c0.3-0.1,0.6-0.2,0.9-0.3c0.3-0.1,0.5-0.2,0.7-0.4
			c0.2-0.1,0.4-0.3,0.5-0.6c0.1-0.2,0.3-0.4,0.4-0.7c0.2-0.3,0.3-0.7,0.5-1c0.2-0.4,0.3-0.8,0.5-1.2c0.1-0.4,0.3-0.9,0.4-1.3h2.4
			v4.7h5.9v2.7H118v7.4c0,1.5,0,2.6,0.1,3.5c0.1,0.9,0.2,1.6,0.3,2c0.2,0.5,0.4,0.8,0.6,0.9c0.3,0.2,0.6,0.2,1.1,0.2
			c0.3,0,0.5,0,0.9-0.1c0.3,0,0.6-0.1,0.9-0.2c0.3-0.1,0.6-0.1,0.8-0.2c0.3-0.1,0.5-0.2,0.6-0.3l0.8,1.8c-0.3,0.3-0.6,0.6-1.1,0.8
			c-0.5,0.2-1,0.5-1.6,0.6c-0.6,0.2-1.2,0.3-1.8,0.4c-0.6,0.1-1.3,0.1-1.9,0.1c-0.8,0-1.6-0.1-2.1-0.3c-0.6-0.2-1.1-0.6-1.4-1
			c-0.4-0.5-0.6-1.1-0.8-1.8c-0.2-0.7-0.2-1.6-0.2-2.6V23.4z"/>
		<path class="st4" d="M126.5,30.7c0-1.5,0.2-2.9,0.7-4.2c0.5-1.3,1.2-2.4,2.1-3.4c0.9-0.9,2-1.7,3.2-2.3c1.3-0.6,2.7-0.8,4.3-0.8
			c1.2,0,2.3,0.2,3.3,0.5c0.9,0.3,1.7,0.8,2.3,1.5c0.6,0.6,1.1,1.4,1.4,2.3c0.3,0.9,0.5,1.9,0.6,3c0,0.7,0,1.4-0.1,1.9
			c-0.1,0.6-0.1,1.1-0.2,1.5h-12.5c0,0,0,0.1,0,0.1c0,0,0,0.1,0,0.1c0.1,1.2,0.3,2.2,0.6,3.1c0.3,0.8,0.8,1.5,1.3,2.1
			c0.5,0.5,1.2,0.9,1.9,1.2c0.7,0.2,1.5,0.4,2.3,0.4c0.4,0,0.9,0,1.4-0.1c0.5,0,1-0.1,1.4-0.2c0.5-0.1,0.9-0.2,1.4-0.3
			c0.4-0.1,0.8-0.3,1.2-0.5l0.8,1.9c-0.4,0.3-0.9,0.6-1.5,0.9c-0.6,0.3-1.2,0.5-1.9,0.7s-1.4,0.3-2.2,0.5c-0.8,0.1-1.5,0.2-2.3,0.1
			c-1.5,0-2.8-0.3-4-0.7s-2.2-1.1-3-2c-0.8-0.8-1.4-1.9-1.8-3.1C126.7,33.6,126.5,32.3,126.5,30.7z M139.3,28.3c0-0.5,0.1-1,0.1-1.6
			c0-0.5,0-1.1-0.1-1.6c-0.1-0.5-0.2-1-0.4-1.4c-0.2-0.4-0.5-0.8-0.9-1c-0.2-0.2-0.5-0.3-0.9-0.4c-0.3-0.1-0.7-0.1-1.1-0.1
			c-0.7,0-1.3,0.2-1.8,0.5c-0.5,0.3-1,0.7-1.3,1.3c-0.4,0.5-0.6,1.2-0.9,1.9c-0.2,0.7-0.4,1.5-0.4,2.4H139.3z"/>
		<path class="st4" d="M147.7,38.2l2.4-0.4V25.1l-2.4-1.5v-1.7l5.7-1.7l1.1,0.3v3.1c0.2-0.5,0.5-0.9,0.9-1.3
			c0.4-0.4,0.9-0.8,1.4-1.1c0.5-0.3,1.1-0.6,1.6-0.7c0.6-0.2,1-0.3,1.5-0.3c0.4,0,0.8,0,1.1,0c0.3,0,0.6,0.1,0.7,0.1V25
			c-0.3-0.2-0.8-0.4-1.3-0.5c-0.6-0.1-1.1-0.2-1.7-0.2c-0.5,0-0.9,0-1.3,0.1c-0.4,0.1-0.7,0.1-1,0.2c-0.3,0.1-0.5,0.2-0.7,0.3
			c-0.2,0.1-0.4,0.2-0.5,0.3v12.5l4.5,0.5v2h-11.9V38.2z"/>
		<path class="st4" d="M164,30.9c0-1.7,0.2-3.1,0.8-4.5c0.5-1.3,1.3-2.4,2.2-3.4c0.9-0.9,2-1.6,3.3-2.1c1.3-0.5,2.6-0.8,4-0.8
			c0.5,0,1.1,0,1.7,0c0.6,0,1.1,0.1,1.7,0.2c0.5,0.1,1,0.2,1.4,0.3c0.4,0.1,0.8,0.3,1,0.4v5h-2.5l-1.2-2.8c-0.3-0.2-0.8-0.4-1.2-0.5
			c-0.5-0.1-0.9-0.1-1.3-0.1c-0.7,0-1.3,0.1-1.9,0.4c-0.6,0.3-1.1,0.7-1.5,1.3c-0.4,0.6-0.8,1.3-1,2.1c-0.3,0.8-0.4,1.8-0.4,2.9
			c0,1.5,0.1,2.8,0.4,3.8c0.3,1.1,0.8,1.9,1.3,2.6c0.6,0.7,1.2,1.2,1.9,1.5c0.7,0.3,1.5,0.5,2.2,0.5c0.5,0,1,0,1.5-0.1
			c0.5-0.1,1-0.1,1.4-0.3c0.4-0.1,0.8-0.2,1.2-0.4c0.4-0.1,0.6-0.3,0.9-0.5l0.8,1.9c-0.4,0.3-0.9,0.7-1.4,0.9
			c-0.6,0.3-1.2,0.5-1.8,0.7c-0.7,0.2-1.3,0.3-2.1,0.4c-0.7,0.1-1.5,0.1-2.3,0.1c-1.5,0-2.8-0.2-3.9-0.7c-1.1-0.5-2.1-1.2-2.9-2
			c-0.8-0.9-1.4-1.9-1.8-3.1C164.2,33.6,164,32.3,164,30.9z"/>
		<path class="st4" d="M183,30.7c0-1.5,0.2-2.9,0.7-4.2c0.5-1.3,1.2-2.4,2.1-3.4c0.9-0.9,2-1.7,3.2-2.3c1.3-0.6,2.7-0.8,4.3-0.8
			c1.2,0,2.3,0.2,3.3,0.5c0.9,0.3,1.7,0.8,2.3,1.5c0.6,0.6,1.1,1.4,1.4,2.3c0.3,0.9,0.5,1.9,0.6,3c0,0.7,0,1.4-0.1,1.9
			c-0.1,0.6-0.1,1.1-0.2,1.5h-12.5c0,0,0,0.1,0,0.1c0,0,0,0.1,0,0.1c0.1,1.2,0.3,2.2,0.6,3.1c0.3,0.8,0.8,1.5,1.3,2.1
			c0.5,0.5,1.2,0.9,1.9,1.2c0.7,0.2,1.5,0.4,2.3,0.4c0.4,0,0.9,0,1.4-0.1c0.5,0,1-0.1,1.4-0.2c0.5-0.1,0.9-0.2,1.4-0.3
			c0.4-0.1,0.8-0.3,1.2-0.5l0.8,1.9c-0.4,0.3-0.9,0.6-1.5,0.9c-0.6,0.3-1.2,0.5-1.9,0.7s-1.4,0.3-2.2,0.5c-0.8,0.1-1.5,0.2-2.3,0.1
			c-1.5,0-2.8-0.3-4-0.7c-1.2-0.5-2.2-1.1-3-2c-0.8-0.8-1.4-1.9-1.8-3.1C183.2,33.6,183,32.3,183,30.7z M195.9,28.3
			c0-0.5,0.1-1,0.1-1.6c0-0.5,0-1.1-0.1-1.6c-0.1-0.5-0.2-1-0.4-1.4c-0.2-0.4-0.5-0.8-0.9-1c-0.2-0.2-0.5-0.3-0.9-0.4
			c-0.3-0.1-0.7-0.1-1.1-0.1c-0.7,0-1.3,0.2-1.8,0.5c-0.5,0.3-1,0.7-1.3,1.3c-0.4,0.5-0.6,1.2-0.9,1.9c-0.2,0.7-0.4,1.5-0.4,2.4
			H195.9z"/>
		<path class="st4" d="M206.4,46.6V25.1l-2.4-1.5v-1.7l5.7-1.7l1,0.3v2.1c0.1-0.2,0.4-0.4,0.7-0.7c0.3-0.3,0.7-0.6,1.2-0.8
			c0.5-0.3,1.1-0.5,1.7-0.7c0.7-0.2,1.4-0.3,2.2-0.3c1,0,2,0.2,2.9,0.5c0.9,0.3,1.8,0.9,2.5,1.6c0.7,0.8,1.3,1.8,1.7,3
			c0.4,1.2,0.6,2.8,0.6,4.6c0,1.5-0.3,2.9-0.8,4.2c-0.5,1.3-1.3,2.5-2.2,3.4c-0.9,1-2,1.8-3.3,2.3c-1.3,0.6-2.7,0.9-4.2,0.9
			c-0.5,0-1,0-1.5-0.1c-0.5-0.1-0.9-0.2-1.2-0.2l0.2,3.7v2.7l3.6,0.5v2H204v-2L206.4,46.6z M211.3,36.7c0.1,0.2,0.3,0.4,0.5,0.6
			c0.2,0.2,0.5,0.3,0.8,0.4c0.3,0.1,0.6,0.2,1,0.3c0.4,0.1,0.7,0.1,1.1,0.1c0.5,0,1.1-0.1,1.6-0.4c0.6-0.2,1.1-0.7,1.5-1.2
			c0.5-0.6,0.8-1.4,1.1-2.3c0.3-1,0.5-2.2,0.5-3.6c0-1.5-0.1-2.7-0.4-3.7c-0.3-1-0.7-1.8-1.2-2.4c-0.5-0.6-1-1-1.6-1.2
			c-0.6-0.2-1.2-0.3-1.7-0.3c-0.4,0-0.8,0.1-1.1,0.2c-0.3,0.1-0.6,0.2-0.9,0.4c-0.3,0.2-0.5,0.3-0.7,0.5c-0.2,0.2-0.4,0.3-0.5,0.4
			l0,6.6V36.7z"/>
		<path class="st4" d="M229.6,23.4H227v-1.7c0.4-0.1,0.8-0.2,1.1-0.2c0.3-0.1,0.6-0.2,0.9-0.3c0.3-0.1,0.5-0.2,0.7-0.4
			c0.2-0.1,0.4-0.3,0.5-0.6c0.1-0.2,0.3-0.4,0.4-0.7c0.2-0.3,0.3-0.7,0.5-1s0.3-0.8,0.5-1.2c0.1-0.4,0.3-0.9,0.4-1.3h2.4v4.7h5.9
			v2.7h-5.8v7.4c0,1.5,0,2.6,0.1,3.5c0.1,0.9,0.2,1.6,0.3,2c0.2,0.5,0.4,0.8,0.6,0.9c0.3,0.2,0.6,0.2,1.1,0.2c0.3,0,0.5,0,0.9-0.1
			c0.3,0,0.6-0.1,0.9-0.2c0.3-0.1,0.6-0.1,0.8-0.2c0.3-0.1,0.5-0.2,0.6-0.3l0.8,1.8c-0.3,0.3-0.6,0.6-1.1,0.8
			c-0.5,0.2-1,0.5-1.6,0.6c-0.6,0.2-1.2,0.3-1.8,0.4c-0.6,0.1-1.3,0.1-1.9,0.1c-0.8,0-1.6-0.1-2.1-0.3c-0.6-0.2-1.1-0.6-1.4-1
			c-0.4-0.5-0.6-1.1-0.8-1.8c-0.2-0.7-0.2-1.6-0.2-2.6V23.4z"/>
	</g>
</g>
</svg>
