<svg width="23" height="25" xmlns="http://www.w3.org/2000/svg"><path d="M20.6 3.9c.4 0 .8.1 1.2.5.3.3.5.7.5 1.2v17.1c0 .5-.2.9-.5 1.2-.4.4-.8.5-1.2.5H1.7c-.5 0-.9-.1-1.2-.5-.3-.3-.5-.7-.5-1.2V5.6c0-.5.2-.9.5-1.2.3-.4.7-.5 1.2-.5h1.7V2.6c0-.6.2-1.1.7-1.5A2 2 0 0 1 5.6.4h.8c.6 0 1.1.2 1.5.7.5.4.7.9.7 1.5v1.3h5.1V2.6c0-.6.2-1.1.6-1.5A2 2 0 0 1 16 .4h.8c.6 0 1.1.2 1.5.7.4.4.7.9.7 1.5v1.3h1.7zm-5.2-1.3v3.8l.1.3.4.2h.8c.1 0 .2 0 .3-.2l.1-.3V2.6v-.3l-.4-.2H16c-.2 0-.3 0-.4.2v.3zm-10.3 0v3.8c0 .2 0 .3.2.3 0 .1.1.2.3.2h.8c.2 0 .3 0 .3-.2.1 0 .2-.1.2-.3V2.6c0-.2 0-.3-.2-.3 0-.1-.1-.2-.3-.2h-.8c-.2 0-.3 0-.3.2-.1 0-.2.1-.2.3zm15.5 20.1V9H1.7v13.7h18.9zM12 15h3l.3.1.1.3v1.2l-.4.1h-3v3l-.1.3-.3.1h-1.2l-.1-.4v-3h-3l-.3-.1-.1-.3v-.9-.3l.4-.1h3v-3l.1-.3.3-.1H12l.1.4v3z" fill="#51832f" fill-rule="evenodd"/></svg>