<svg xmlns="http://www.w3.org/2000/svg" width="12" height="23" viewBox="0 0 12 23">
  <path fill="#51832f" fill-rule="evenodd" d="M833.84375,20.5892857 L833.84375,24.125 L831.741071,24.125 C830.97321,24.125 830.455358,24.2857127 830.1875,24.6071429 C829.919642,24.928573 829.785714,25.4107111 829.785714,26.0535714 L829.785714,28.5848214 L833.709821,28.5848214 L833.1875,32.5491071 L829.785714,32.5491071 L829.785714,42.7142857 L825.6875,42.7142857 L825.6875,32.5491071 L822.272321,32.5491071 L822.272321,28.5848214 L825.6875,28.5848214 L825.6875,25.6651786 C825.6875,24.004456 826.151781,22.7165224 827.080357,21.8013393 C828.008933,20.8861561 829.245528,20.4285714 830.790179,20.4285714 C832.102685,20.4285714 833.120532,20.4821423 833.84375,20.5892857 Z" transform="translate(-822 -20)"/>
</svg>
