<svg xmlns="http://www.w3.org/2000/svg" width="21" height="21" viewBox="0 0 21 21">
  <path fill="#51832f" fill-rule="evenodd" d="M1042.24107,39.5267857 L1042.24107,30.8482143 L1040.43304,30.8482143 C1040.61161,31.4107171 1040.70089,31.9955327 1040.70089,32.6026786 C1040.70089,33.7276842 1040.41518,34.7656202 1039.84375,35.7165179 C1039.27232,36.6674155 1038.49554,37.4196401 1037.51339,37.9732143 C1036.53125,38.5267885 1035.45983,38.8035714 1034.29911,38.8035714 C1032.54017,38.8035714 1031.03572,38.1986668 1029.78571,36.9888393 C1028.53571,35.7790118 1027.91071,34.3169729 1027.91071,32.6026786 C1027.91071,31.9955327 1028,31.4107171 1028.17857,30.8482143 L1026.29018,30.8482143 L1026.29018,39.5267857 C1026.29018,39.7589297 1026.3683,39.9531242 1026.52455,40.109375 C1026.6808,40.2656258 1026.875,40.34375 1027.10714,40.34375 L1041.42411,40.34375 C1041.64732,40.34375 1041.83928,40.2656258 1042,40.109375 C1042.16072,39.9531242 1042.24107,39.7589297 1042.24107,39.5267857 Z M1038.4375,32.3883929 C1038.4375,31.2812445 1038.03349,30.3370575 1037.22545,29.5558036 C1036.41741,28.7745497 1035.44197,28.3839286 1034.29911,28.3839286 C1033.16517,28.3839286 1032.1942,28.7745497 1031.38616,29.5558036 C1030.57812,30.3370575 1030.17411,31.2812445 1030.17411,32.3883929 C1030.17411,33.4955413 1030.57812,34.4397282 1031.38616,35.2209821 C1032.1942,36.002236 1033.16517,36.3928571 1034.29911,36.3928571 C1035.44197,36.3928571 1036.41741,36.002236 1037.22545,35.2209821 C1038.03349,34.4397282 1038.4375,33.4955413 1038.4375,32.3883929 Z M1042.24107,27.5669643 L1042.24107,25.3571429 C1042.24107,25.1071416 1042.15179,24.8906259 1041.97321,24.7075893 C1041.79464,24.5245527 1041.57589,24.4330357 1041.31696,24.4330357 L1038.98661,24.4330357 C1038.72768,24.4330357 1038.50893,24.5245527 1038.33036,24.7075893 C1038.15178,24.8906259 1038.0625,25.1071416 1038.0625,25.3571429 L1038.0625,27.5669643 C1038.0625,27.8258942 1038.15178,28.044642 1038.33036,28.2232143 C1038.50893,28.4017866 1038.72768,28.4910714 1038.98661,28.4910714 L1041.31696,28.4910714 C1041.57589,28.4910714 1041.79464,28.4017866 1041.97321,28.2232143 C1042.15179,28.044642 1042.24107,27.8258942 1042.24107,27.5669643 Z M1044.57143,24.78125 L1044.57143,40.0758929 C1044.57143,40.7991108 1044.3125,41.4196403 1043.79464,41.9375 C1043.27678,42.4553597 1042.65625,42.7142857 1041.93304,42.7142857 L1026.63839,42.7142857 C1025.91517,42.7142857 1025.29465,42.4553597 1024.77679,41.9375 C1024.25893,41.4196403 1024,40.7991108 1024,40.0758929 L1024,24.78125 C1024,24.0580321 1024.25893,23.4375026 1024.77679,22.9196429 C1025.29465,22.4017831 1025.91517,22.1428571 1026.63839,22.1428571 L1041.93304,22.1428571 C1042.65625,22.1428571 1043.27678,22.4017831 1043.79464,22.9196429 C1044.3125,23.4375026 1044.57143,24.0580321 1044.57143,24.78125 Z" transform="translate(-1024 -22)"/>
</svg>
