<?xml version="1.0" encoding="UTF-8"?>
  <svg xmlns="http://www.w3.org/2000/svg" xmlns:xlink="http://www.w3.org/1999/xlink" width="21pt" height="21pt" viewBox="0 0 21 21" version="1.1">
  <g id="surface1">
    <path fill="#ffffff" style="stroke:none;fill-rule:evenodd;fill-opacity:1;" d="M 21 2.625 C 21 1.175781 19.824219 0 18.375 0 L 2.625 0 C 1.175781 0 0 1.175781 0 2.625 L 0 18.375 C 0 19.824219 1.175781 21 2.625 21 L 18.375 21 C 19.824219 21 21 19.824219 21 18.375 Z M 21 2.625"/>
    <path fill="#4c4d4f" style="stroke:none;fill-rule:evenodd;fill-opacity:1;" d="M 2.503906 7.328125 L 6.023438 7.328125 L 6.023438 17.910156 L 2.503906 17.910156 Z M 2.503906 7.328125"/>
    <path fill="#4c4d4f" style="stroke:none;fill-rule:nonzero;fill-opacity:1;" d="M 4.285156 2.226562 C 3.082031 2.226562 2.296875 3.015625 2.296875 4.054688 C 2.296875 5.070312 3.058594 5.882812 4.238281 5.882812 L 4.261719 5.882812 C 5.488281 5.882812 6.253906 5.070312 6.253906 4.054688 C 6.230469 3.015625 5.488281 2.226562 4.285156 2.226562 Z M 4.285156 2.226562"/>
    <path fill="#4c4d4f" style="stroke:none;fill-rule:nonzero;fill-opacity:1;" d="M 14.652344 7.078125 C 12.789062 7.078125 11.953125 8.105469 11.484375 8.824219 L 11.484375 7.328125 L 7.96875 7.328125 C 8.015625 8.320312 7.96875 17.910156 7.96875 17.910156 L 11.484375 17.910156 L 11.484375 12 C 11.484375 11.683594 11.507812 11.367188 11.601562 11.140625 C 11.855469 10.507812 12.433594 9.855469 13.40625 9.855469 C 14.675781 9.855469 15.1875 10.824219 15.1875 12.246094 L 15.1875 17.910156 L 18.703125 17.910156 L 18.703125 11.839844 C 18.703125 8.589844 16.96875 7.078125 14.652344 7.078125 Z M 14.652344 7.078125"/>
  </g>
</svg>
