<?xml version="1.0" encoding="utf-8"?>
<!-- Generator: Adobe Illustrator 25.0.0, SVG Export Plug-In . SVG Version: 6.00 Build 0)  -->
<svg version="1.1" id="Layer_1" xmlns="http://www.w3.org/2000/svg" xmlns:xlink="http://www.w3.org/1999/xlink" x="0px" y="0px"
	 viewBox="0 0 21 21" style="enable-background:new 0 0 21 21;" xml:space="preserve">
<style type="text/css">
	.st0{fill-rule:evenodd;clip-rule:evenodd;fill:#FFFFFF;}
	.st1{fill:#FFFFFF;}
</style>
<g id="surface1">
	<path class="st0" d="M2.5,7.3H6v10.6H2.5V7.3z"/>
	<path class="st1" d="M4.3,2.2c-1.2,0-2,0.8-2,1.8c0,1,0.8,1.8,1.9,1.8h0c1.2,0,2-0.8,2-1.8C6.2,3,5.5,2.2,4.3,2.2z"/>
	<path class="st1" d="M14.7,7.1c-1.9,0-2.7,1-3.2,1.7V7.3H8c0,1,0,10.6,0,10.6h3.5V12c0-0.3,0-0.6,0.1-0.9c0.3-0.6,0.8-1.3,1.8-1.3
		c1.3,0,1.8,1,1.8,2.4v5.7h3.5v-6.1C18.7,8.6,17,7.1,14.7,7.1z"/>
</g>
</svg>
