<?xml version="1.0" encoding="utf-8"?>
<!-- Generator: Adobe Illustrator 25.0.0, SVG Export Plug-In . SVG Version: 6.00 Build 0)  -->
<svg version="1.1" id="Layer_1" xmlns="http://www.w3.org/2000/svg" xmlns:xlink="http://www.w3.org/1999/xlink" x="0px" y="0px"
	 viewBox="0 0 21 21" style="enable-background:new 0 0 21 21;" xml:space="preserve">
<style type="text/css">
	.st0{fill-rule:evenodd;clip-rule:evenodd;fill:#FFFFFF;}
</style>
<path class="st0" d="M18.4,0H2.6C1.2,0,0,1.2,0,2.6v15.8C0,19.8,1.2,21,2.6,21h15.8c1.4,0,2.6-1.2,2.6-2.6V2.6C21,1.2,19.8,0,18.4,0
	z M6,17.9H2.5V7.3H6V17.9z M4.3,5.9L4.3,5.9c-1.2,0-2-0.8-2-1.8c0-1,0.8-1.8,2-1.8s1.9,0.8,2,1.8C6.3,5.1,5.5,5.9,4.3,5.9z
	 M18.7,17.9h-3.5v-5.7c0-1.4-0.5-2.4-1.8-2.4c-1,0-1.6,0.7-1.8,1.3c-0.1,0.2-0.1,0.5-0.1,0.9v5.9H8c0,0,0-9.6,0-10.6h3.5v1.5
	c0.5-0.7,1.3-1.7,3.2-1.7c2.3,0,4.1,1.5,4.1,4.8V17.9z"/>
</svg>
