<?xml version="1.0" encoding="utf-8"?>
<!-- Generator: Adobe Illustrator 23.0.3, SVG Export Plug-In . SVG Version: 6.00 Build 0)  -->
<svg version="1.1" id="Overlap_Version" xmlns="http://www.w3.org/2000/svg" xmlns:xlink="http://www.w3.org/1999/xlink" x="0px"
	 y="0px" viewBox="0 0 500 500" style="enable-background:new 0 0 500 500;" xml:space="preserve">
<style type="text/css">
	.st0{fill:#99C221;}
	.st1{fill:#FFFFFF;}
</style>
<g>
	<circle class="st0" cx="250" cy="250" r="250"/>
	<g>
		<path class="st1" d="M177.67,369.81h-14.02c-6.61,0-6.61-11.07,0-11.07h40.56c6.55,0,6.55,11.07,0,11.07h-14.02v40.6
			c0,8.78-12.52,8.78-12.52,0V369.81z"/>
		<path class="st1" d="M219.34,387.14c0-4.55,0.76-8.67,2.29-12.36c1.52-3.69,3.65-6.83,6.38-9.43c2.73-2.59,5.96-4.59,9.71-5.98
			c3.74-1.39,7.84-2.09,12.28-2.09c4.44,0,8.53,0.7,12.28,2.09c3.75,1.39,6.98,3.38,9.71,5.98c2.73,2.6,4.86,5.74,6.38,9.43
			c1.53,3.69,2.29,7.81,2.29,12.36s-0.76,8.67-2.29,12.36c-1.52,3.69-3.65,6.83-6.38,9.43c-2.73,2.6-5.97,4.59-9.71,5.98
			c-3.75,1.39-7.84,2.09-12.28,2.09c-4.44,0-8.53-0.7-12.28-2.09c-3.75-1.39-6.98-3.38-9.71-5.98c-2.73-2.6-4.86-5.74-6.38-9.43
			C220.11,395.81,219.34,391.69,219.34,387.14z M232.35,387.14c0,2.68,0.41,5.12,1.24,7.34c0.83,2.22,2.02,4.15,3.57,5.78
			c1.55,1.63,3.41,2.9,5.58,3.81c2.17,0.91,4.59,1.36,7.26,1.36c2.67,0,5.1-0.45,7.26-1.36c2.17-0.91,4.03-2.18,5.58-3.81
			c1.55-1.63,2.74-3.56,3.57-5.78c0.83-2.22,1.24-4.67,1.24-7.34c0-2.62-0.42-5.06-1.24-7.3c-0.83-2.25-2.02-4.19-3.57-5.82
			c-1.55-1.63-3.41-2.9-5.58-3.81c-2.17-0.91-4.59-1.36-7.26-1.36c-2.68,0-5.1,0.45-7.26,1.36c-2.17,0.91-4.03,2.18-5.58,3.81
			c-1.55,1.63-2.74,3.57-3.57,5.82C232.76,382.09,232.35,384.52,232.35,387.14z"/>
		<path class="st1" d="M296.94,364.05c0-2.93,2.38-5.31,5.31-5.31h17.8c2.94,0,5.72,0.27,8.35,0.8c2.62,0.54,4.91,1.46,6.86,2.77
			c1.95,1.31,3.5,3.08,4.65,5.3c1.15,2.22,1.73,5.02,1.73,8.39c0,3.32-0.54,6.1-1.61,8.35c-1.07,2.25-2.54,4.04-4.41,5.38
			c-1.87,1.34-4.09,2.29-6.66,2.85c-2.57,0.56-5.35,0.84-8.35,0.84h-11.15v17.01c0,8.78-12.52,8.78-12.52,0L296.94,364.05z
			 M309.46,382.81h10.35c1.12,0,2.21-0.11,3.25-0.32c1.04-0.21,1.98-0.57,2.81-1.08c0.83-0.51,1.5-1.2,2.01-2.09
			s0.76-1.99,0.76-3.33c0-1.44-0.34-2.61-1-3.49c-0.67-0.88-1.53-1.56-2.57-2.05c-1.04-0.48-2.21-0.79-3.49-0.92
			c-1.28-0.13-2.52-0.2-3.69-0.2h-8.42V382.81z"/>
	</g>
	<path class="st1" d="M382.32,196.74L267.55,80.22c-4.63-4.7-10.95-7.35-17.55-7.35c-6.6,0-12.92,2.65-17.55,7.35l-114.36,116.1
		c-9.37,9.51-9.96,24.91-0.78,34.61c9.63,10.19,25.71,10.28,35.46,0.38l67.78-68.81c1.76-1.79,4.81-0.54,4.81,1.97v122.67
		c0,13.36,10.39,24.73,23.73,25.21c14.01,0.5,25.53-10.71,25.53-24.62V164.47c0-2.51,3.05-3.76,4.81-1.97l67.78,68.81
		c4.82,4.89,11.18,7.35,17.55,7.35c6.24,0,12.49-2.36,17.28-7.08C391.75,222.03,391.87,206.43,382.32,196.74z"/>
</g>
</svg>