<?xml version="1.0" encoding="utf-8"?>
<!-- Generator: Adobe Illustrator 23.0.3, SVG Export Plug-In . SVG Version: 6.00 Build 0)  -->
<svg version="1.1" id="Cutout" xmlns="http://www.w3.org/2000/svg" xmlns:xlink="http://www.w3.org/1999/xlink" x="0px" y="0px"
	 viewBox="0 0 500 500" style="enable-background:new 0 0 500 500;" xml:space="preserve">
<style type="text/css">
	.st0{fill:#99C221;}
</style>
<g>
	<path class="st0" d="M262.84,374.02c-1.55-1.63-3.41-2.9-5.58-3.81c-2.17-0.91-4.59-1.36-7.26-1.36c-2.68,0-5.1,0.45-7.26,1.36
		c-2.17,0.91-4.03,2.18-5.58,3.81c-1.55,1.63-2.74,3.57-3.57,5.82c-0.83,2.25-1.24,4.68-1.24,7.3c0,2.68,0.41,5.12,1.24,7.34
		c0.83,2.22,2.02,4.15,3.57,5.78c1.55,1.63,3.41,2.9,5.58,3.81c2.17,0.91,4.59,1.36,7.26,1.36c2.67,0,5.1-0.45,7.26-1.36
		c2.17-0.91,4.03-2.18,5.58-3.81c1.55-1.63,2.74-3.56,3.57-5.78c0.83-2.22,1.24-4.67,1.24-7.34c0-2.62-0.42-5.06-1.24-7.3
		C265.58,377.59,264.39,375.65,262.84,374.02z"/>
	<path class="st0" d="M325.07,370.45c-1.04-0.48-2.21-0.79-3.49-0.92c-1.28-0.13-2.52-0.2-3.69-0.2h-8.42v13.48h10.35
		c1.12,0,2.21-0.11,3.25-0.32c1.04-0.21,1.98-0.57,2.81-1.08c0.83-0.51,1.5-1.2,2.01-2.09c0.51-0.88,0.76-1.99,0.76-3.33
		c0-1.44-0.34-2.61-1-3.49C326.96,371.61,326.11,370.93,325.07,370.45z"/>
	<path class="st0" d="M250,0C111.93,0,0,111.93,0,250s111.93,250,250,250s250-111.93,250-250S388.07,0,250,0z M204.21,369.81h-14.02
		v40.6c0,8.78-12.52,8.78-12.52,0v-40.6h-14.02c-6.61,0-6.61-11.07,0-11.07h40.56C210.76,358.73,210.76,369.81,204.21,369.81z
		 M278.37,399.5c-1.52,3.69-3.65,6.83-6.38,9.43c-2.73,2.59-5.97,4.59-9.71,5.98c-3.75,1.39-7.84,2.09-12.28,2.09
		c-4.44,0-8.53-0.7-12.28-2.09c-3.75-1.39-6.98-3.38-9.71-5.98c-2.73-2.6-4.86-5.74-6.38-9.43c-1.52-3.69-2.29-7.81-2.29-12.36
		c0-4.55,0.76-8.67,2.29-12.36c1.52-3.69,3.65-6.83,6.38-9.43c2.73-2.59,5.96-4.59,9.71-5.98c3.74-1.39,7.84-2.09,12.28-2.09
		c4.44,0,8.53,0.7,12.28,2.09c3.75,1.39,6.98,3.38,9.71,5.98c2.73,2.6,4.85,5.74,6.38,9.43c1.53,3.69,2.29,7.81,2.29,12.36
		C280.66,391.69,279.89,395.81,278.37,399.5z M340.03,384.33c-1.07,2.25-2.54,4.04-4.41,5.38c-1.87,1.34-4.09,2.29-6.66,2.85
		c-2.57,0.56-5.35,0.84-8.35,0.84h-11.15v17.01c0,8.78-12.52,8.78-12.52,0v-46.36c0-2.93,2.38-5.31,5.31-5.31h17.8
		c2.94,0,5.72,0.27,8.35,0.8c2.62,0.54,4.91,1.46,6.86,2.77c1.95,1.31,3.5,3.08,4.65,5.3c1.15,2.22,1.73,5.02,1.73,8.39
		C341.64,379.31,341.1,382.09,340.03,384.33z M382.06,231.57c-4.8,4.73-11.04,7.08-17.28,7.08c-6.37,0-12.73-2.45-17.55-7.35
		l-67.78-68.81c-1.76-1.79-4.81-0.54-4.81,1.97v123.26c0,13.9-11.52,25.11-25.53,24.62c-13.35-0.47-23.73-11.85-23.73-25.21V164.47
		c0-2.51-3.05-3.76-4.81-1.97l-67.78,68.81c-9.76,9.9-25.83,9.81-35.46-0.38c-9.18-9.7-8.59-25.1,0.78-34.61l114.36-116.1
		c4.63-4.7,10.95-7.35,17.55-7.35c6.6,0,12.92,2.65,17.55,7.35l114.77,116.52C391.87,206.43,391.75,222.03,382.06,231.57z"/>
</g>
</svg>
