<svg width="13" height="13" fill="none" xmlns="http://www.w3.org/2000/svg"><path d="m8.156 6.75 4.57 4.57c.07.106.106.211.106.317 0 .14-.035.21-.105.281l-.809.809a.4.4 0 0 1-.281.105c-.14 0-.246-.035-.317-.105l-4.57-4.57-4.57 4.57a.567.567 0 0 1-.317.105c-.14 0-.21-.035-.281-.105l-.809-.809c-.07-.07-.105-.14-.105-.281 0-.106.035-.211.105-.317l4.57-4.57-4.57-4.57c-.07-.07-.105-.176-.105-.317a.4.4 0 0 1 .105-.281l.809-.809c.07-.07.14-.105.281-.105.106 0 .211.035.317.105l4.57 4.57 4.57-4.57c.07-.07.176-.105.317-.105a.4.4 0 0 1 .281.105l.809.809a.4.4 0 0 1 .105.281c0 .14-.035.246-.105.317l-4.57 4.57Z" fill="#fff"/></svg>