<svg width="16" height="17" fill="none" xmlns="http://www.w3.org/2000/svg"><path d="M15.781 14.344c.125.156.219.344.219.531a.754.754 0 0 1-.219.531l-.875.875a.732.732 0 0 1-.531.219c-.219 0-.406-.063-.531-.219l-3.125-3.125c-.156-.125-.219-.312-.219-.531v-.5c-1.188.938-2.5 1.375-4 1.375-1.188 0-2.281-.281-3.281-.875a6.035 6.035 0 0 1-2.344-2.344C.281 9.281 0 8.187 0 7c0-1.188.281-2.25.875-3.25.563-1 1.344-1.781 2.344-2.375C4.219.812 5.313.5 6.5.5c1.188 0 2.25.313 3.25.875a6.653 6.653 0 0 1 2.375 2.375C12.688 4.75 13 5.813 13 7c0 1.5-.469 2.844-1.375 4h.5c.188 0 .375.094.531.219l3.125 3.125ZM6.5 11c.719 0 1.375-.156 2-.531.625-.344 1.094-.813 1.469-1.438A4.102 4.102 0 0 0 10.5 7c0-.719-.188-1.375-.531-2A4.134 4.134 0 0 0 8.5 3.531 4.073 4.073 0 0 0 6.5 3c-.75 0-1.406.188-2.031.531-.625.375-1.094.844-1.438 1.469-.375.625-.531 1.281-.531 2 0 .75.156 1.406.531 2.031A3.539 3.539 0 0 0 4.47 10.47C5.094 10.844 5.75 11 6.5 11Z" fill="#fff"/></svg>