<svg width="28" height="24" fill="none" xmlns="http://www.w3.org/2000/svg"><path d="M27.25 3.75a.71.71 0 0 0 .5-.188A.792.792 0 0 0 28 3V1c0-.188-.125-.375-.25-.5s-.313-.25-.5-.25H.75A.792.792 0 0 0 .187.5.71.71 0 0 0 0 1v2c0 .25.063.438.188.563.124.124.312.187.562.187h26.5Zm0 10a.71.71 0 0 0 .5-.188A.792.792 0 0 0 28 13v-2c0-.188-.125-.375-.25-.5s-.313-.25-.5-.25H.75a.792.792 0 0 0-.563.25A.71.71 0 0 0 0 11v2c0 .25.063.438.188.563.124.124.312.187.562.187h26.5Zm0 10a.71.71 0 0 0 .5-.188A.792.792 0 0 0 28 23v-2c0-.188-.125-.375-.25-.5s-.313-.25-.5-.25H.75a.792.792 0 0 0-.563.25A.71.71 0 0 0 0 21v2c0 .25.063.438.188.563.124.125.312.187.562.187h26.5Z" fill="#51832F"/></svg>