<svg width="24" height="24" fill="none" xmlns="http://www.w3.org/2000/svg"><path d="M4.5 7.5c0 1.36.328 2.625.984 3.75a7.129 7.129 0 0 0 2.766 2.766c1.125.656 2.39.984 3.75.984a7.598 7.598 0 0 0 3.75-.984 7.336 7.336 0 0 0 2.719-2.766A7.386 7.386 0 0 0 19.5 7.5c0-1.313-.375-2.578-1.031-3.75a7.558 7.558 0 0 0-2.719-2.719C14.578.375 13.312 0 12 0c-1.36 0-2.625.375-3.75 1.031A7.336 7.336 0 0 0 5.484 3.75 7.599 7.599 0 0 0 4.5 7.5Zm14.25 9c.938 0 1.781.234 2.625.703a5.394 5.394 0 0 1 1.922 1.922c.469.844.703 1.688.703 2.625v1.125c0 .328-.14.61-.328.797a1.098 1.098 0 0 1-.797.328H1.125c-.328 0-.61-.094-.797-.328-.234-.188-.328-.469-.328-.797V21.75c0-.938.234-1.781.703-2.625.469-.797 1.078-1.453 1.922-1.922A5.124 5.124 0 0 1 5.25 16.5h1.36C8.25 17.531 10.03 18 12 18c1.922 0 3.703-.469 5.39-1.5h1.36Z" fill="#51832F"/></svg>