<svg xmlns="http://www.w3.org/2000/svg" width="22" height="18" viewBox="0 0 22 18">
  <path fill="#51832f" fill-rule="evenodd" d="M925.696429,25.8928571 C925.098211,26.7678615 924.375004,27.5133898 923.526786,28.1294643 C923.535714,28.2544649 923.540179,28.441963 923.540179,28.6919643 C923.540179,29.8526844 923.370537,31.0111549 923.03125,32.1674107 C922.691963,33.3236665 922.176343,34.4330304 921.484375,35.4955357 C920.792407,36.558041 919.968755,37.4977638 919.013393,38.3147321 C918.058031,39.1317005 916.906257,39.7834797 915.558036,40.2700893 C914.209815,40.7566989 912.767865,41 911.232143,41 C908.812488,41 906.598224,40.352685 904.589286,39.0580357 C904.901787,39.0937502 905.249998,39.1116071 905.633929,39.1116071 C907.642867,39.1116071 909.433028,38.4955419 911.004464,37.2633929 C910.06696,37.2455356 909.227682,36.9575921 908.486607,36.3995536 C907.745532,35.8415151 907.236609,35.1294686 906.959821,34.2633929 C907.254466,34.3080359 907.526784,34.3303571 907.776786,34.3303571 C908.160716,34.3303571 908.540177,34.2812505 908.915179,34.1830357 C907.915174,33.9776775 907.087057,33.4799147 906.430804,32.6897321 C905.77455,31.8995496 905.446429,30.9821481 905.446429,29.9375 L905.446429,29.8839286 C906.053574,30.223216 906.705354,30.4062499 907.401786,30.4330357 C906.812497,30.0401766 906.343752,29.5267889 905.995536,28.8928571 C905.64732,28.2589254 905.473214,27.5714323 905.473214,26.8303571 C905.473214,26.0446389 905.669641,25.3169676 906.0625,24.6473214 C907.142863,25.9776852 908.457582,27.0424067 910.006696,27.8415179 C911.555811,28.640629 913.214277,29.084821 914.982143,29.1741071 C914.910714,28.8348197 914.875,28.5044659 914.875,28.1830357 C914.875,26.9866012 915.296871,25.9665221 916.140625,25.1227679 C916.984379,24.2790136 918.004458,23.8571429 919.200893,23.8571429 C920.450899,23.8571429 921.50446,24.3124954 922.361607,25.2232143 C923.334826,25.0357133 924.249996,24.6875025 925.107143,24.1785714 C924.776784,25.2053623 924.142862,25.9999972 923.205357,26.5625 C924.035718,26.4732138 924.866067,26.2500018 925.696429,25.8928571 Z" transform="translate(-904 -23)"/>
</svg>
