<svg xmlns="http://www.w3.org/2000/svg" width="3" height="100" viewBox="0 0 3 100">
  <path fill="#878B90" fill-rule="evenodd" d="M208.68,918.04 C208.68,918.320001 208.580001,918.569999 208.38,918.79 C208.179999,919.010001 207.920002,919.12 207.6,919.12 C207.279998,919.12 207.020001,919.010001 206.82,918.79 C206.619999,918.569999 206.52,918.320001 206.52,918.04 C206.52,917.759999 206.619999,917.510001 206.82,917.29 C207.020001,917.069999 207.279998,916.96 207.6,916.96 C207.920002,916.96 208.179999,917.069999 208.38,917.29 C208.580001,917.510001 208.68,917.759999 208.68,918.04 Z M213.78,918.04 C213.78,918.320001 213.680001,918.569999 213.48,918.79 C213.279999,919.010001 213.020002,919.12 212.7,919.12 C212.379998,919.12 212.120001,919.010001 211.92,918.79 C211.719999,918.569999 211.62,918.320001 211.62,918.04 C211.62,917.759999 211.719999,917.510001 211.92,917.29 C212.120001,917.069999 212.379998,916.96 212.7,916.96 C213.020002,916.96 213.279999,917.069999 213.48,917.29 C213.680001,917.510001 213.78,917.759999 213.78,918.04 Z M218.88,918.04 C218.88,918.320001 218.780001,918.569999 218.58,918.79 C218.379999,919.010001 218.120002,919.12 217.8,919.12 C217.479998,919.12 217.220001,919.010001 217.02,918.79 C216.819999,918.569999 216.72,918.320001 216.72,918.04 C216.72,917.759999 216.819999,917.510001 217.02,917.29 C217.220001,917.069999 217.479998,916.96 217.8,916.96 C218.120002,916.96 218.379999,917.069999 218.58,917.29 C218.780001,917.510001 218.88,917.759999 218.88,918.04 Z M223.98,918.04 C223.98,918.320001 223.880001,918.569999 223.68,918.79 C223.479999,919.010001 223.220002,919.12 222.9,919.12 C222.579998,919.12 222.320001,919.010001 222.12,918.79 C221.919999,918.569999 221.82,918.320001 221.82,918.04 C221.82,917.759999 221.919999,917.510001 222.12,917.29 C222.320001,917.069999 222.579998,916.96 222.9,916.96 C223.220002,916.96 223.479999,917.069999 223.68,917.29 C223.880001,917.510001 223.98,917.759999 223.98,918.04 Z M229.08,918.04 C229.08,918.320001 228.980001,918.569999 228.78,918.79 C228.579999,919.010001 228.320002,919.12 228,919.12 C227.679998,919.12 227.420001,919.010001 227.22,918.79 C227.019999,918.569999 226.92,918.320001 226.92,918.04 C226.92,917.759999 227.019999,917.510001 227.22,917.29 C227.420001,917.069999 227.679998,916.96 228,916.96 C228.320002,916.96 228.579999,917.069999 228.78,917.29 C228.980001,917.510001 229.08,917.759999 229.08,918.04 Z M234.18,918.04 C234.18,918.320001 234.080001,918.569999 233.88,918.79 C233.679999,919.010001 233.420002,919.12 233.1,919.12 C232.779998,919.12 232.520001,919.010001 232.32,918.79 C232.119999,918.569999 232.02,918.320001 232.02,918.04 C232.02,917.759999 232.119999,917.510001 232.32,917.29 C232.520001,917.069999 232.779998,916.96 233.1,916.96 C233.420002,916.96 233.679999,917.069999 233.88,917.29 C234.080001,917.510001 234.18,917.759999 234.18,918.04 Z M239.28,918.04 C239.28,918.320001 239.180001,918.569999 238.98,918.79 C238.779999,919.010001 238.520002,919.12 238.2,919.12 C237.879998,919.12 237.620001,919.010001 237.42,918.79 C237.219999,918.569999 237.12,918.320001 237.12,918.04 C237.12,917.759999 237.219999,917.510001 237.42,917.29 C237.620001,917.069999 237.879998,916.96 238.2,916.96 C238.520002,916.96 238.779999,917.069999 238.98,917.29 C239.180001,917.510001 239.28,917.759999 239.28,918.04 Z M244.38,918.04 C244.38,918.320001 244.280001,918.569999 244.08,918.79 C243.879999,919.010001 243.620002,919.12 243.3,919.12 C242.979998,919.12 242.720001,919.010001 242.52,918.79 C242.319999,918.569999 242.22,918.320001 242.22,918.04 C242.22,917.759999 242.319999,917.510001 242.52,917.29 C242.720001,917.069999 242.979998,916.96 243.3,916.96 C243.620002,916.96 243.879999,917.069999 244.08,917.29 C244.280001,917.510001 244.38,917.759999 244.38,918.04 Z M249.48,918.04 C249.48,918.320001 249.380001,918.569999 249.18,918.79 C248.979999,919.010001 248.720002,919.12 248.4,919.12 C248.079998,919.12 247.820001,919.010001 247.62,918.79 C247.419999,918.569999 247.32,918.320001 247.32,918.04 C247.32,917.759999 247.419999,917.510001 247.62,917.29 C247.820001,917.069999 248.079998,916.96 248.4,916.96 C248.720002,916.96 248.979999,917.069999 249.18,917.29 C249.380001,917.510001 249.48,917.759999 249.48,918.04 Z M254.58,918.04 C254.58,918.320001 254.480001,918.569999 254.28,918.79 C254.079999,919.010001 253.820002,919.12 253.5,919.12 C253.179998,919.12 252.920001,919.010001 252.72,918.79 C252.519999,918.569999 252.42,918.320001 252.42,918.04 C252.42,917.759999 252.519999,917.510001 252.72,917.29 C252.920001,917.069999 253.179998,916.96 253.5,916.96 C253.820002,916.96 254.079999,917.069999 254.28,917.29 C254.480001,917.510001 254.58,917.759999 254.58,918.04 Z M259.68,918.04 C259.68,918.320001 259.580001,918.569999 259.38,918.79 C259.179999,919.010001 258.920002,919.12 258.6,919.12 C258.279998,919.12 258.020001,919.010001 257.82,918.79 C257.619999,918.569999 257.52,918.320001 257.52,918.04 C257.52,917.759999 257.619999,917.510001 257.82,917.29 C258.020001,917.069999 258.279998,916.96 258.6,916.96 C258.920002,916.96 259.179999,917.069999 259.38,917.29 C259.580001,917.510001 259.68,917.759999 259.68,918.04 Z M264.78,918.04 C264.78,918.320001 264.680001,918.569999 264.48,918.79 C264.279999,919.010001 264.020002,919.12 263.7,919.12 C263.379998,919.12 263.120001,919.010001 262.92,918.79 C262.719999,918.569999 262.62,918.320001 262.62,918.04 C262.62,917.759999 262.719999,917.510001 262.92,917.29 C263.120001,917.069999 263.379998,916.96 263.7,916.96 C264.020002,916.96 264.279999,917.069999 264.48,917.29 C264.680001,917.510001 264.78,917.759999 264.78,918.04 Z M269.88,918.04 C269.88,918.320001 269.780001,918.569999 269.58,918.79 C269.379999,919.010001 269.120002,919.12 268.8,919.12 C268.479998,919.12 268.220001,919.010001 268.02,918.79 C267.819999,918.569999 267.72,918.320001 267.72,918.04 C267.72,917.759999 267.819999,917.510001 268.02,917.29 C268.220001,917.069999 268.479998,916.96 268.8,916.96 C269.120002,916.96 269.379999,917.069999 269.58,917.29 C269.780001,917.510001 269.88,917.759999 269.88,918.04 Z M274.98,918.04 C274.98,918.320001 274.880001,918.569999 274.68,918.79 C274.479999,919.010001 274.220002,919.12 273.9,919.12 C273.579998,919.12 273.320001,919.010001 273.12,918.79 C272.919999,918.569999 272.82,918.320001 272.82,918.04 C272.82,917.759999 272.919999,917.510001 273.12,917.29 C273.320001,917.069999 273.579998,916.96 273.9,916.96 C274.220002,916.96 274.479999,917.069999 274.68,917.29 C274.880001,917.510001 274.98,917.759999 274.98,918.04 Z M280.08,918.04 C280.08,918.320001 279.980001,918.569999 279.78,918.79 C279.579999,919.010001 279.320002,919.12 279,919.12 C278.679998,919.12 278.420001,919.010001 278.22,918.79 C278.019999,918.569999 277.92,918.320001 277.92,918.04 C277.92,917.759999 278.019999,917.510001 278.22,917.29 C278.420001,917.069999 278.679998,916.96 279,916.96 C279.320002,916.96 279.579999,917.069999 279.78,917.29 C279.980001,917.510001 280.08,917.759999 280.08,918.04 Z M285.18,918.04 C285.18,918.320001 285.080001,918.569999 284.88,918.79 C284.679999,919.010001 284.420002,919.12 284.1,919.12 C283.779998,919.12 283.520001,919.010001 283.32,918.79 C283.119999,918.569999 283.02,918.320001 283.02,918.04 C283.02,917.759999 283.119999,917.510001 283.32,917.29 C283.520001,917.069999 283.779998,916.96 284.1,916.96 C284.420002,916.96 284.679999,917.069999 284.88,917.29 C285.080001,917.510001 285.18,917.759999 285.18,918.04 Z M290.28,918.04 C290.28,918.320001 290.180001,918.569999 289.98,918.79 C289.779999,919.010001 289.520002,919.12 289.2,919.12 C288.879998,919.12 288.620001,919.010001 288.42,918.79 C288.219999,918.569999 288.12,918.320001 288.12,918.04 C288.12,917.759999 288.219999,917.510001 288.42,917.29 C288.620001,917.069999 288.879998,916.96 289.2,916.96 C289.520002,916.96 289.779999,917.069999 289.98,917.29 C290.180001,917.510001 290.28,917.759999 290.28,918.04 Z M295.38,918.04 C295.38,918.320001 295.280001,918.569999 295.08,918.79 C294.879999,919.010001 294.620002,919.12 294.3,919.12 C293.979998,919.12 293.720001,919.010001 293.52,918.79 C293.319999,918.569999 293.22,918.320001 293.22,918.04 C293.22,917.759999 293.319999,917.510001 293.52,917.29 C293.720001,917.069999 293.979998,916.96 294.3,916.96 C294.620002,916.96 294.879999,917.069999 295.08,917.29 C295.280001,917.510001 295.38,917.759999 295.38,918.04 Z M300.48,918.04 C300.48,918.320001 300.380001,918.569999 300.18,918.79 C299.979999,919.010001 299.720002,919.12 299.4,919.12 C299.079998,919.12 298.820001,919.010001 298.62,918.79 C298.419999,918.569999 298.32,918.320001 298.32,918.04 C298.32,917.759999 298.419999,917.510001 298.62,917.29 C298.820001,917.069999 299.079998,916.96 299.4,916.96 C299.720002,916.96 299.979999,917.069999 300.18,917.29 C300.380001,917.510001 300.48,917.759999 300.48,918.04 Z M305.58,918.04 C305.58,918.320001 305.480001,918.569999 305.28,918.79 C305.079999,919.010001 304.820002,919.12 304.5,919.12 C304.179998,919.12 303.920001,919.010001 303.72,918.79 C303.519999,918.569999 303.42,918.320001 303.42,918.04 C303.42,917.759999 303.519999,917.510001 303.72,917.29 C303.920001,917.069999 304.179998,916.96 304.5,916.96 C304.820002,916.96 305.079999,917.069999 305.28,917.29 C305.480001,917.510001 305.58,917.759999 305.58,918.04 Z" transform="rotate(-90 -305.45 611.54)"/>
</svg>
