<svg xmlns="http://www.w3.org/2000/svg" width="824" height="3" viewBox="0 0 824 3">
  <path fill="#747481" fill-rule="evenodd" d="M2.68,1.04 C2.68,1.3200014 2.580001,1.5699989 2.38,1.79 C2.179999,2.0100011 1.9200016,2.12 1.6,2.12 C1.2799984,2.12 1.020001,2.0100011 0.82,1.79 C0.619999,1.5699989 0.52,1.3200014 0.52,1.04 C0.52,0.7599986 0.619999,0.5100011 0.82,0.29 C1.020001,0.0699989 1.2799984,-0.04 1.6,-0.04 C1.9200016,-0.04 2.179999,0.0699989 2.38,0.29 C2.580001,0.5100011 2.68,0.7599986 2.68,1.04 Z M7.78,1.04 C7.78,1.3200014 7.680001,1.5699989 7.48,1.79 C7.279999,2.0100011 7.0200016,2.12 6.7,2.12 C6.3799984,2.12 6.120001,2.0100011 5.92,1.79 C5.719999,1.5699989 5.62,1.3200014 5.62,1.04 C5.62,0.7599986 5.719999,0.5100011 5.92,0.29 C6.120001,0.0699989 6.3799984,-0.04 6.7,-0.04 C7.0200016,-0.04 7.279999,0.0699989 7.48,0.29 C7.680001,0.5100011 7.78,0.7599986 7.78,1.04 Z M12.88,1.04 C12.88,1.3200014 12.780001,1.5699989 12.58,1.79 C12.379999,2.0100011 12.1200016,2.12 11.8,2.12 C11.4799984,2.12 11.220001,2.0100011 11.02,1.79 C10.819999,1.5699989 10.72,1.3200014 10.72,1.04 C10.72,0.7599986 10.819999,0.5100011 11.02,0.29 C11.220001,0.0699989 11.4799984,-0.04 11.8,-0.04 C12.1200016,-0.04 12.379999,0.0699989 12.58,0.29 C12.780001,0.5100011 12.88,0.7599986 12.88,1.04 Z M17.98,1.04 C17.98,1.3200014 17.880001,1.5699989 17.68,1.79 C17.479999,2.0100011 17.2200016,2.12 16.9,2.12 C16.5799984,2.12 16.320001,2.0100011 16.12,1.79 C15.919999,1.5699989 15.82,1.3200014 15.82,1.04 C15.82,0.7599986 15.919999,0.5100011 16.12,0.29 C16.320001,0.0699989 16.5799984,-0.04 16.9,-0.04 C17.2200016,-0.04 17.479999,0.0699989 17.68,0.29 C17.880001,0.5100011 17.98,0.7599986 17.98,1.04 Z M23.08,1.04 C23.08,1.3200014 22.980001,1.5699989 22.78,1.79 C22.579999,2.0100011 22.3200016,2.12 22,2.12 C21.6799984,2.12 21.420001,2.0100011 21.22,1.79 C21.019999,1.5699989 20.92,1.3200014 20.92,1.04 C20.92,0.7599986 21.019999,0.5100011 21.22,0.29 C21.420001,0.0699989 21.6799984,-0.04 22,-0.04 C22.3200016,-0.04 22.579999,0.0699989 22.78,0.29 C22.980001,0.5100011 23.08,0.7599986 23.08,1.04 Z M28.18,1.04 C28.18,1.3200014 28.080001,1.5699989 27.88,1.79 C27.679999,2.0100011 27.4200016,2.12 27.1,2.12 C26.7799984,2.12 26.520001,2.0100011 26.32,1.79 C26.119999,1.5699989 26.02,1.3200014 26.02,1.04 C26.02,0.7599986 26.119999,0.5100011 26.32,0.29 C26.520001,0.0699989 26.7799984,-0.04 27.1,-0.04 C27.4200016,-0.04 27.679999,0.0699989 27.88,0.29 C28.080001,0.5100011 28.18,0.7599986 28.18,1.04 Z M33.28,1.04 C33.28,1.3200014 33.180001,1.5699989 32.98,1.79 C32.779999,2.0100011 32.5200016,2.12 32.2,2.12 C31.8799984,2.12 31.620001,2.0100011 31.42,1.79 C31.219999,1.5699989 31.12,1.3200014 31.12,1.04 C31.12,0.7599986 31.219999,0.5100011 31.42,0.29 C31.620001,0.0699989 31.8799984,-0.04 32.2,-0.04 C32.5200016,-0.04 32.779999,0.0699989 32.98,0.29 C33.180001,0.5100011 33.28,0.7599986 33.28,1.04 Z M38.38,1.04 C38.38,1.3200014 38.280001,1.5699989 38.08,1.79 C37.879999,2.0100011 37.6200016,2.12 37.3,2.12 C36.9799984,2.12 36.720001,2.0100011 36.52,1.79 C36.319999,1.5699989 36.22,1.3200014 36.22,1.04 C36.22,0.7599986 36.319999,0.5100011 36.52,0.29 C36.720001,0.0699989 36.9799984,-0.04 37.3,-0.04 C37.6200016,-0.04 37.879999,0.0699989 38.08,0.29 C38.280001,0.5100011 38.38,0.7599986 38.38,1.04 Z M43.48,1.04 C43.48,1.3200014 43.380001,1.5699989 43.18,1.79 C42.979999,2.0100011 42.7200016,2.12 42.4,2.12 C42.0799984,2.12 41.820001,2.0100011 41.62,1.79 C41.419999,1.5699989 41.32,1.3200014 41.32,1.04 C41.32,0.7599986 41.419999,0.5100011 41.62,0.29 C41.820001,0.0699989 42.0799984,-0.04 42.4,-0.04 C42.7200016,-0.04 42.979999,0.0699989 43.18,0.29 C43.380001,0.5100011 43.48,0.7599986 43.48,1.04 Z M48.58,1.04 C48.58,1.3200014 48.480001,1.5699989 48.28,1.79 C48.079999,2.0100011 47.8200016,2.12 47.5,2.12 C47.1799984,2.12 46.920001,2.0100011 46.72,1.79 C46.519999,1.5699989 46.42,1.3200014 46.42,1.04 C46.42,0.7599986 46.519999,0.5100011 46.72,0.29 C46.920001,0.0699989 47.1799984,-0.04 47.5,-0.04 C47.8200016,-0.04 48.079999,0.0699989 48.28,0.29 C48.480001,0.5100011 48.58,0.7599986 48.58,1.04 Z M53.68,1.04 C53.68,1.3200014 53.580001,1.5699989 53.38,1.79 C53.179999,2.0100011 52.9200016,2.12 52.6,2.12 C52.2799984,2.12 52.020001,2.0100011 51.82,1.79 C51.619999,1.5699989 51.52,1.3200014 51.52,1.04 C51.52,0.7599986 51.619999,0.5100011 51.82,0.29 C52.020001,0.0699989 52.2799984,-0.04 52.6,-0.04 C52.9200016,-0.04 53.179999,0.0699989 53.38,0.29 C53.580001,0.5100011 53.68,0.7599986 53.68,1.04 Z M58.78,1.04 C58.78,1.3200014 58.680001,1.5699989 58.48,1.79 C58.279999,2.0100011 58.0200016,2.12 57.7,2.12 C57.3799984,2.12 57.120001,2.0100011 56.92,1.79 C56.719999,1.5699989 56.62,1.3200014 56.62,1.04 C56.62,0.7599986 56.719999,0.5100011 56.92,0.29 C57.120001,0.0699989 57.3799984,-0.04 57.7,-0.04 C58.0200016,-0.04 58.279999,0.0699989 58.48,0.29 C58.680001,0.5100011 58.78,0.7599986 58.78,1.04 Z M63.88,1.04 C63.88,1.3200014 63.780001,1.5699989 63.58,1.79 C63.379999,2.0100011 63.1200016,2.12 62.8,2.12 C62.4799984,2.12 62.220001,2.0100011 62.02,1.79 C61.819999,1.5699989 61.72,1.3200014 61.72,1.04 C61.72,0.7599986 61.819999,0.5100011 62.02,0.29 C62.220001,0.0699989 62.4799984,-0.04 62.8,-0.04 C63.1200016,-0.04 63.379999,0.0699989 63.58,0.29 C63.780001,0.5100011 63.88,0.7599986 63.88,1.04 Z M68.98,1.04 C68.98,1.3200014 68.880001,1.5699989 68.68,1.79 C68.479999,2.0100011 68.2200016,2.12 67.9,2.12 C67.5799984,2.12 67.320001,2.0100011 67.12,1.79 C66.919999,1.5699989 66.82,1.3200014 66.82,1.04 C66.82,0.7599986 66.919999,0.5100011 67.12,0.29 C67.320001,0.0699989 67.5799984,-0.04 67.9,-0.04 C68.2200016,-0.04 68.479999,0.0699989 68.68,0.29 C68.880001,0.5100011 68.98,0.7599986 68.98,1.04 Z M74.08,1.04 C74.08,1.3200014 73.980001,1.5699989 73.78,1.79 C73.579999,2.0100011 73.3200016,2.12 73,2.12 C72.6799984,2.12 72.420001,2.0100011 72.22,1.79 C72.019999,1.5699989 71.92,1.3200014 71.92,1.04 C71.92,0.7599986 72.019999,0.5100011 72.22,0.29 C72.420001,0.0699989 72.6799984,-0.04 73,-0.04 C73.3200016,-0.04 73.579999,0.0699989 73.78,0.29 C73.980001,0.5100011 74.08,0.7599986 74.08,1.04 Z M79.18,1.04 C79.18,1.3200014 79.080001,1.5699989 78.88,1.79 C78.679999,2.0100011 78.4200016,2.12 78.1,2.12 C77.7799984,2.12 77.520001,2.0100011 77.32,1.79 C77.119999,1.5699989 77.02,1.3200014 77.02,1.04 C77.02,0.7599986 77.119999,0.5100011 77.32,0.29 C77.520001,0.0699989 77.7799984,-0.04 78.1,-0.04 C78.4200016,-0.04 78.679999,0.0699989 78.88,0.29 C79.080001,0.5100011 79.18,0.7599986 79.18,1.04 Z M84.28,1.04 C84.28,1.3200014 84.180001,1.5699989 83.98,1.79 C83.779999,2.0100011 83.5200016,2.12 83.2,2.12 C82.8799984,2.12 82.620001,2.0100011 82.42,1.79 C82.219999,1.5699989 82.12,1.3200014 82.12,1.04 C82.12,0.7599986 82.219999,0.5100011 82.42,0.29 C82.620001,0.0699989 82.8799984,-0.04 83.2,-0.04 C83.5200016,-0.04 83.779999,0.0699989 83.98,0.29 C84.180001,0.5100011 84.28,0.7599986 84.28,1.04 Z M89.38,1.04 C89.38,1.3200014 89.280001,1.5699989 89.08,1.79 C88.879999,2.0100011 88.6200016,2.12 88.3,2.12 C87.9799984,2.12 87.720001,2.0100011 87.52,1.79 C87.319999,1.5699989 87.22,1.3200014 87.22,1.04 C87.22,0.7599986 87.319999,0.5100011 87.52,0.29 C87.720001,0.0699989 87.9799984,-0.04 88.3,-0.04 C88.6200016,-0.04 88.879999,0.0699989 89.08,0.29 C89.280001,0.5100011 89.38,0.7599986 89.38,1.04 Z M94.48,1.04 C94.48,1.3200014 94.380001,1.5699989 94.18,1.79 C93.979999,2.0100011 93.7200016,2.12 93.4,2.12 C93.0799984,2.12 92.820001,2.0100011 92.62,1.79 C92.419999,1.5699989 92.32,1.3200014 92.32,1.04 C92.32,0.7599986 92.419999,0.5100011 92.62,0.29 C92.820001,0.0699989 93.0799984,-0.04 93.4,-0.04 C93.7200016,-0.04 93.979999,0.0699989 94.18,0.29 C94.380001,0.5100011 94.48,0.7599986 94.48,1.04 Z M99.58,1.04 C99.58,1.3200014 99.480001,1.5699989 99.28,1.79 C99.079999,2.0100011 98.8200016,2.12 98.5,2.12 C98.1799984,2.12 97.920001,2.0100011 97.72,1.79 C97.519999,1.5699989 97.42,1.3200014 97.42,1.04 C97.42,0.7599986 97.519999,0.5100011 97.72,0.29 C97.920001,0.0699989 98.1799984,-0.04 98.5,-0.04 C98.8200016,-0.04 99.079999,0.0699989 99.28,0.29 C99.480001,0.5100011 99.58,0.7599986 99.58,1.04 Z M104.68,1.04 C104.68,1.3200014 104.580001,1.5699989 104.38,1.79 C104.179999,2.0100011 103.920002,2.12 103.6,2.12 C103.279998,2.12 103.020001,2.0100011 102.82,1.79 C102.619999,1.5699989 102.52,1.3200014 102.52,1.04 C102.52,0.7599986 102.619999,0.5100011 102.82,0.29 C103.020001,0.0699989 103.279998,-0.04 103.6,-0.04 C103.920002,-0.04 104.179999,0.0699989 104.38,0.29 C104.580001,0.5100011 104.68,0.7599986 104.68,1.04 Z M109.78,1.04 C109.78,1.3200014 109.680001,1.5699989 109.48,1.79 C109.279999,2.0100011 109.020002,2.12 108.7,2.12 C108.379998,2.12 108.120001,2.0100011 107.92,1.79 C107.719999,1.5699989 107.62,1.3200014 107.62,1.04 C107.62,0.7599986 107.719999,0.5100011 107.92,0.29 C108.120001,0.0699989 108.379998,-0.04 108.7,-0.04 C109.020002,-0.04 109.279999,0.0699989 109.48,0.29 C109.680001,0.5100011 109.78,0.7599986 109.78,1.04 Z M114.88,1.04 C114.88,1.3200014 114.780001,1.5699989 114.58,1.79 C114.379999,2.0100011 114.120002,2.12 113.8,2.12 C113.479998,2.12 113.220001,2.0100011 113.02,1.79 C112.819999,1.5699989 112.72,1.3200014 112.72,1.04 C112.72,0.7599986 112.819999,0.5100011 113.02,0.29 C113.220001,0.0699989 113.479998,-0.04 113.8,-0.04 C114.120002,-0.04 114.379999,0.0699989 114.58,0.29 C114.780001,0.5100011 114.88,0.7599986 114.88,1.04 Z M119.98,1.04 C119.98,1.3200014 119.880001,1.5699989 119.68,1.79 C119.479999,2.0100011 119.220002,2.12 118.9,2.12 C118.579998,2.12 118.320001,2.0100011 118.12,1.79 C117.919999,1.5699989 117.82,1.3200014 117.82,1.04 C117.82,0.7599986 117.919999,0.5100011 118.12,0.29 C118.320001,0.0699989 118.579998,-0.04 118.9,-0.04 C119.220002,-0.04 119.479999,0.0699989 119.68,0.29 C119.880001,0.5100011 119.98,0.7599986 119.98,1.04 Z M125.08,1.04 C125.08,1.3200014 124.980001,1.5699989 124.78,1.79 C124.579999,2.0100011 124.320002,2.12 124,2.12 C123.679998,2.12 123.420001,2.0100011 123.22,1.79 C123.019999,1.5699989 122.92,1.3200014 122.92,1.04 C122.92,0.7599986 123.019999,0.5100011 123.22,0.29 C123.420001,0.0699989 123.679998,-0.04 124,-0.04 C124.320002,-0.04 124.579999,0.0699989 124.78,0.29 C124.980001,0.5100011 125.08,0.7599986 125.08,1.04 Z M130.18,1.04 C130.18,1.3200014 130.080001,1.5699989 129.88,1.79 C129.679999,2.0100011 129.420002,2.12 129.1,2.12 C128.779998,2.12 128.520001,2.0100011 128.32,1.79 C128.119999,1.5699989 128.02,1.3200014 128.02,1.04 C128.02,0.7599986 128.119999,0.5100011 128.32,0.29 C128.520001,0.0699989 128.779998,-0.04 129.1,-0.04 C129.420002,-0.04 129.679999,0.0699989 129.88,0.29 C130.080001,0.5100011 130.18,0.7599986 130.18,1.04 Z M135.28,1.04 C135.28,1.3200014 135.180001,1.5699989 134.98,1.79 C134.779999,2.0100011 134.520002,2.12 134.2,2.12 C133.879998,2.12 133.620001,2.0100011 133.42,1.79 C133.219999,1.5699989 133.12,1.3200014 133.12,1.04 C133.12,0.7599986 133.219999,0.5100011 133.42,0.29 C133.620001,0.0699989 133.879998,-0.04 134.2,-0.04 C134.520002,-0.04 134.779999,0.0699989 134.98,0.29 C135.180001,0.5100011 135.28,0.7599986 135.28,1.04 Z M140.38,1.04 C140.38,1.3200014 140.280001,1.5699989 140.08,1.79 C139.879999,2.0100011 139.620002,2.12 139.3,2.12 C138.979998,2.12 138.720001,2.0100011 138.52,1.79 C138.319999,1.5699989 138.22,1.3200014 138.22,1.04 C138.22,0.7599986 138.319999,0.5100011 138.52,0.29 C138.720001,0.0699989 138.979998,-0.04 139.3,-0.04 C139.620002,-0.04 139.879999,0.0699989 140.08,0.29 C140.280001,0.5100011 140.38,0.7599986 140.38,1.04 Z M145.48,1.04 C145.48,1.3200014 145.380001,1.5699989 145.18,1.79 C144.979999,2.0100011 144.720002,2.12 144.4,2.12 C144.079998,2.12 143.820001,2.0100011 143.62,1.79 C143.419999,1.5699989 143.32,1.3200014 143.32,1.04 C143.32,0.7599986 143.419999,0.5100011 143.62,0.29 C143.820001,0.0699989 144.079998,-0.04 144.4,-0.04 C144.720002,-0.04 144.979999,0.0699989 145.18,0.29 C145.380001,0.5100011 145.48,0.7599986 145.48,1.04 Z M150.58,1.04 C150.58,1.3200014 150.480001,1.5699989 150.28,1.79 C150.079999,2.0100011 149.820002,2.12 149.5,2.12 C149.179998,2.12 148.920001,2.0100011 148.72,1.79 C148.519999,1.5699989 148.42,1.3200014 148.42,1.04 C148.42,0.7599986 148.519999,0.5100011 148.72,0.29 C148.920001,0.0699989 149.179998,-0.04 149.5,-0.04 C149.820002,-0.04 150.079999,0.0699989 150.28,0.29 C150.480001,0.5100011 150.58,0.7599986 150.58,1.04 Z M155.68,1.04 C155.68,1.3200014 155.580001,1.5699989 155.38,1.79 C155.179999,2.0100011 154.920002,2.12 154.6,2.12 C154.279998,2.12 154.020001,2.0100011 153.82,1.79 C153.619999,1.5699989 153.52,1.3200014 153.52,1.04 C153.52,0.7599986 153.619999,0.5100011 153.82,0.29 C154.020001,0.0699989 154.279998,-0.04 154.6,-0.04 C154.920002,-0.04 155.179999,0.0699989 155.38,0.29 C155.580001,0.5100011 155.68,0.7599986 155.68,1.04 Z M160.78,1.04 C160.78,1.3200014 160.680001,1.5699989 160.48,1.79 C160.279999,2.0100011 160.020002,2.12 159.7,2.12 C159.379998,2.12 159.120001,2.0100011 158.92,1.79 C158.719999,1.5699989 158.62,1.3200014 158.62,1.04 C158.62,0.7599986 158.719999,0.5100011 158.92,0.29 C159.120001,0.0699989 159.379998,-0.04 159.7,-0.04 C160.020002,-0.04 160.279999,0.0699989 160.48,0.29 C160.680001,0.5100011 160.78,0.7599986 160.78,1.04 Z M165.88,1.04 C165.88,1.3200014 165.780001,1.5699989 165.58,1.79 C165.379999,2.0100011 165.120002,2.12 164.8,2.12 C164.479998,2.12 164.220001,2.0100011 164.02,1.79 C163.819999,1.5699989 163.72,1.3200014 163.72,1.04 C163.72,0.7599986 163.819999,0.5100011 164.02,0.29 C164.220001,0.0699989 164.479998,-0.04 164.8,-0.04 C165.120002,-0.04 165.379999,0.0699989 165.58,0.29 C165.780001,0.5100011 165.88,0.7599986 165.88,1.04 Z M170.98,1.04 C170.98,1.3200014 170.880001,1.5699989 170.68,1.79 C170.479999,2.0100011 170.220002,2.12 169.9,2.12 C169.579998,2.12 169.320001,2.0100011 169.12,1.79 C168.919999,1.5699989 168.82,1.3200014 168.82,1.04 C168.82,0.7599986 168.919999,0.5100011 169.12,0.29 C169.320001,0.0699989 169.579998,-0.04 169.9,-0.04 C170.220002,-0.04 170.479999,0.0699989 170.68,0.29 C170.880001,0.5100011 170.98,0.7599986 170.98,1.04 Z M176.08,1.04 C176.08,1.3200014 175.980001,1.5699989 175.78,1.79 C175.579999,2.0100011 175.320002,2.12 175,2.12 C174.679998,2.12 174.420001,2.0100011 174.22,1.79 C174.019999,1.5699989 173.92,1.3200014 173.92,1.04 C173.92,0.7599986 174.019999,0.5100011 174.22,0.29 C174.420001,0.0699989 174.679998,-0.04 175,-0.04 C175.320002,-0.04 175.579999,0.0699989 175.78,0.29 C175.980001,0.5100011 176.08,0.7599986 176.08,1.04 Z M181.18,1.04 C181.18,1.3200014 181.080001,1.5699989 180.88,1.79 C180.679999,2.0100011 180.420002,2.12 180.1,2.12 C179.779998,2.12 179.520001,2.0100011 179.32,1.79 C179.119999,1.5699989 179.02,1.3200014 179.02,1.04 C179.02,0.7599986 179.119999,0.5100011 179.32,0.29 C179.520001,0.0699989 179.779998,-0.04 180.1,-0.04 C180.420002,-0.04 180.679999,0.0699989 180.88,0.29 C181.080001,0.5100011 181.18,0.7599986 181.18,1.04 Z M186.28,1.04 C186.28,1.3200014 186.180001,1.5699989 185.98,1.79 C185.779999,2.0100011 185.520002,2.12 185.2,2.12 C184.879998,2.12 184.620001,2.0100011 184.42,1.79 C184.219999,1.5699989 184.12,1.3200014 184.12,1.04 C184.12,0.7599986 184.219999,0.5100011 184.42,0.29 C184.620001,0.0699989 184.879998,-0.04 185.2,-0.04 C185.520002,-0.04 185.779999,0.0699989 185.98,0.29 C186.180001,0.5100011 186.28,0.7599986 186.28,1.04 Z M191.38,1.04 C191.38,1.3200014 191.280001,1.5699989 191.08,1.79 C190.879999,2.0100011 190.620002,2.12 190.3,2.12 C189.979998,2.12 189.720001,2.0100011 189.52,1.79 C189.319999,1.5699989 189.22,1.3200014 189.22,1.04 C189.22,0.7599986 189.319999,0.5100011 189.52,0.29 C189.720001,0.0699989 189.979998,-0.04 190.3,-0.04 C190.620002,-0.04 190.879999,0.0699989 191.08,0.29 C191.280001,0.5100011 191.38,0.7599986 191.38,1.04 Z M196.48,1.04 C196.48,1.3200014 196.380001,1.5699989 196.18,1.79 C195.979999,2.0100011 195.720002,2.12 195.4,2.12 C195.079998,2.12 194.820001,2.0100011 194.62,1.79 C194.419999,1.5699989 194.32,1.3200014 194.32,1.04 C194.32,0.7599986 194.419999,0.5100011 194.62,0.29 C194.820001,0.0699989 195.079998,-0.04 195.4,-0.04 C195.720002,-0.04 195.979999,0.0699989 196.18,0.29 C196.380001,0.5100011 196.48,0.7599986 196.48,1.04 Z M201.58,1.04 C201.58,1.3200014 201.480001,1.5699989 201.28,1.79 C201.079999,2.0100011 200.820002,2.12 200.5,2.12 C200.179998,2.12 199.920001,2.0100011 199.72,1.79 C199.519999,1.5699989 199.42,1.3200014 199.42,1.04 C199.42,0.7599986 199.519999,0.5100011 199.72,0.29 C199.920001,0.0699989 200.179998,-0.04 200.5,-0.04 C200.820002,-0.04 201.079999,0.0699989 201.28,0.29 C201.480001,0.5100011 201.58,0.7599986 201.58,1.04 Z M206.68,1.04 C206.68,1.3200014 206.580001,1.5699989 206.38,1.79 C206.179999,2.0100011 205.920002,2.12 205.6,2.12 C205.279998,2.12 205.020001,2.0100011 204.82,1.79 C204.619999,1.5699989 204.52,1.3200014 204.52,1.04 C204.52,0.7599986 204.619999,0.5100011 204.82,0.29 C205.020001,0.0699989 205.279998,-0.04 205.6,-0.04 C205.920002,-0.04 206.179999,0.0699989 206.38,0.29 C206.580001,0.5100011 206.68,0.7599986 206.68,1.04 Z M211.78,1.04 C211.78,1.3200014 211.680001,1.5699989 211.48,1.79 C211.279999,2.0100011 211.020002,2.12 210.7,2.12 C210.379998,2.12 210.120001,2.0100011 209.92,1.79 C209.719999,1.5699989 209.62,1.3200014 209.62,1.04 C209.62,0.7599986 209.719999,0.5100011 209.92,0.29 C210.120001,0.0699989 210.379998,-0.04 210.7,-0.04 C211.020002,-0.04 211.279999,0.0699989 211.48,0.29 C211.680001,0.5100011 211.78,0.7599986 211.78,1.04 Z M216.88,1.04 C216.88,1.3200014 216.780001,1.5699989 216.58,1.79 C216.379999,2.0100011 216.120002,2.12 215.8,2.12 C215.479998,2.12 215.220001,2.0100011 215.02,1.79 C214.819999,1.5699989 214.72,1.3200014 214.72,1.04 C214.72,0.7599986 214.819999,0.5100011 215.02,0.29 C215.220001,0.0699989 215.479998,-0.04 215.8,-0.04 C216.120002,-0.04 216.379999,0.0699989 216.58,0.29 C216.780001,0.5100011 216.88,0.7599986 216.88,1.04 Z M221.98,1.04 C221.98,1.3200014 221.880001,1.5699989 221.68,1.79 C221.479999,2.0100011 221.220002,2.12 220.9,2.12 C220.579998,2.12 220.320001,2.0100011 220.12,1.79 C219.919999,1.5699989 219.82,1.3200014 219.82,1.04 C219.82,0.7599986 219.919999,0.5100011 220.12,0.29 C220.320001,0.0699989 220.579998,-0.04 220.9,-0.04 C221.220002,-0.04 221.479999,0.0699989 221.68,0.29 C221.880001,0.5100011 221.98,0.7599986 221.98,1.04 Z M227.08,1.04 C227.08,1.3200014 226.980001,1.5699989 226.78,1.79 C226.579999,2.0100011 226.320002,2.12 226,2.12 C225.679998,2.12 225.420001,2.0100011 225.22,1.79 C225.019999,1.5699989 224.92,1.3200014 224.92,1.04 C224.92,0.7599986 225.019999,0.5100011 225.22,0.29 C225.420001,0.0699989 225.679998,-0.04 226,-0.04 C226.320002,-0.04 226.579999,0.0699989 226.78,0.29 C226.980001,0.5100011 227.08,0.7599986 227.08,1.04 Z M232.18,1.04 C232.18,1.3200014 232.080001,1.5699989 231.88,1.79 C231.679999,2.0100011 231.420002,2.12 231.1,2.12 C230.779998,2.12 230.520001,2.0100011 230.32,1.79 C230.119999,1.5699989 230.02,1.3200014 230.02,1.04 C230.02,0.7599986 230.119999,0.5100011 230.32,0.29 C230.520001,0.0699989 230.779998,-0.04 231.1,-0.04 C231.420002,-0.04 231.679999,0.0699989 231.88,0.29 C232.080001,0.5100011 232.18,0.7599986 232.18,1.04 Z M237.28,1.04 C237.28,1.3200014 237.180001,1.5699989 236.98,1.79 C236.779999,2.0100011 236.520002,2.12 236.2,2.12 C235.879998,2.12 235.620001,2.0100011 235.42,1.79 C235.219999,1.5699989 235.12,1.3200014 235.12,1.04 C235.12,0.7599986 235.219999,0.5100011 235.42,0.29 C235.620001,0.0699989 235.879998,-0.04 236.2,-0.04 C236.520002,-0.04 236.779999,0.0699989 236.98,0.29 C237.180001,0.5100011 237.28,0.7599986 237.28,1.04 Z M242.38,1.04 C242.38,1.3200014 242.280001,1.5699989 242.08,1.79 C241.879999,2.0100011 241.620002,2.12 241.3,2.12 C240.979998,2.12 240.720001,2.0100011 240.52,1.79 C240.319999,1.5699989 240.22,1.3200014 240.22,1.04 C240.22,0.7599986 240.319999,0.5100011 240.52,0.29 C240.720001,0.0699989 240.979998,-0.04 241.3,-0.04 C241.620002,-0.04 241.879999,0.0699989 242.08,0.29 C242.280001,0.5100011 242.38,0.7599986 242.38,1.04 Z M247.48,1.04 C247.48,1.3200014 247.380001,1.5699989 247.18,1.79 C246.979999,2.0100011 246.720002,2.12 246.4,2.12 C246.079998,2.12 245.820001,2.0100011 245.62,1.79 C245.419999,1.5699989 245.32,1.3200014 245.32,1.04 C245.32,0.7599986 245.419999,0.5100011 245.62,0.29 C245.820001,0.0699989 246.079998,-0.04 246.4,-0.04 C246.720002,-0.04 246.979999,0.0699989 247.18,0.29 C247.380001,0.5100011 247.48,0.7599986 247.48,1.04 Z M252.58,1.04 C252.58,1.3200014 252.480001,1.5699989 252.28,1.79 C252.079999,2.0100011 251.820002,2.12 251.5,2.12 C251.179998,2.12 250.920001,2.0100011 250.72,1.79 C250.519999,1.5699989 250.42,1.3200014 250.42,1.04 C250.42,0.7599986 250.519999,0.5100011 250.72,0.29 C250.920001,0.0699989 251.179998,-0.04 251.5,-0.04 C251.820002,-0.04 252.079999,0.0699989 252.28,0.29 C252.480001,0.5100011 252.58,0.7599986 252.58,1.04 Z M257.68,1.04 C257.68,1.3200014 257.580001,1.5699989 257.38,1.79 C257.179999,2.0100011 256.920002,2.12 256.6,2.12 C256.279998,2.12 256.020001,2.0100011 255.82,1.79 C255.619999,1.5699989 255.52,1.3200014 255.52,1.04 C255.52,0.7599986 255.619999,0.5100011 255.82,0.29 C256.020001,0.0699989 256.279998,-0.04 256.6,-0.04 C256.920002,-0.04 257.179999,0.0699989 257.38,0.29 C257.580001,0.5100011 257.68,0.7599986 257.68,1.04 Z M262.78,1.04 C262.78,1.3200014 262.680001,1.5699989 262.48,1.79 C262.279999,2.0100011 262.020002,2.12 261.7,2.12 C261.379998,2.12 261.120001,2.0100011 260.92,1.79 C260.719999,1.5699989 260.62,1.3200014 260.62,1.04 C260.62,0.7599986 260.719999,0.5100011 260.92,0.29 C261.120001,0.0699989 261.379998,-0.04 261.7,-0.04 C262.020002,-0.04 262.279999,0.0699989 262.48,0.29 C262.680001,0.5100011 262.78,0.7599986 262.78,1.04 Z M267.88,1.04 C267.88,1.3200014 267.780001,1.5699989 267.58,1.79 C267.379999,2.0100011 267.120002,2.12 266.8,2.12 C266.479998,2.12 266.220001,2.0100011 266.02,1.79 C265.819999,1.5699989 265.72,1.3200014 265.72,1.04 C265.72,0.7599986 265.819999,0.5100011 266.02,0.29 C266.220001,0.0699989 266.479998,-0.04 266.8,-0.04 C267.120002,-0.04 267.379999,0.0699989 267.58,0.29 C267.780001,0.5100011 267.88,0.7599986 267.88,1.04 Z M272.98,1.04 C272.98,1.3200014 272.880001,1.5699989 272.68,1.79 C272.479999,2.0100011 272.220002,2.12 271.9,2.12 C271.579998,2.12 271.320001,2.0100011 271.12,1.79 C270.919999,1.5699989 270.82,1.3200014 270.82,1.04 C270.82,0.7599986 270.919999,0.5100011 271.12,0.29 C271.320001,0.0699989 271.579998,-0.04 271.9,-0.04 C272.220002,-0.04 272.479999,0.0699989 272.68,0.29 C272.880001,0.5100011 272.98,0.7599986 272.98,1.04 Z M278.08,1.04 C278.08,1.3200014 277.980001,1.5699989 277.78,1.79 C277.579999,2.0100011 277.320002,2.12 277,2.12 C276.679998,2.12 276.420001,2.0100011 276.22,1.79 C276.019999,1.5699989 275.92,1.3200014 275.92,1.04 C275.92,0.7599986 276.019999,0.5100011 276.22,0.29 C276.420001,0.0699989 276.679998,-0.04 277,-0.04 C277.320002,-0.04 277.579999,0.0699989 277.78,0.29 C277.980001,0.5100011 278.08,0.7599986 278.08,1.04 Z M283.18,1.04 C283.18,1.3200014 283.080001,1.5699989 282.88,1.79 C282.679999,2.0100011 282.420002,2.12 282.1,2.12 C281.779998,2.12 281.520001,2.0100011 281.32,1.79 C281.119999,1.5699989 281.02,1.3200014 281.02,1.04 C281.02,0.7599986 281.119999,0.5100011 281.32,0.29 C281.520001,0.0699989 281.779998,-0.04 282.1,-0.04 C282.420002,-0.04 282.679999,0.0699989 282.88,0.29 C283.080001,0.5100011 283.18,0.7599986 283.18,1.04 Z M288.28,1.04 C288.28,1.3200014 288.180001,1.5699989 287.98,1.79 C287.779999,2.0100011 287.520002,2.12 287.2,2.12 C286.879998,2.12 286.620001,2.0100011 286.42,1.79 C286.219999,1.5699989 286.12,1.3200014 286.12,1.04 C286.12,0.7599986 286.219999,0.5100011 286.42,0.29 C286.620001,0.0699989 286.879998,-0.04 287.2,-0.04 C287.520002,-0.04 287.779999,0.0699989 287.98,0.29 C288.180001,0.5100011 288.28,0.7599986 288.28,1.04 Z M293.38,1.04 C293.38,1.3200014 293.280001,1.5699989 293.08,1.79 C292.879999,2.0100011 292.620002,2.12 292.3,2.12 C291.979998,2.12 291.720001,2.0100011 291.52,1.79 C291.319999,1.5699989 291.22,1.3200014 291.22,1.04 C291.22,0.7599986 291.319999,0.5100011 291.52,0.29 C291.720001,0.0699989 291.979998,-0.04 292.3,-0.04 C292.620002,-0.04 292.879999,0.0699989 293.08,0.29 C293.280001,0.5100011 293.38,0.7599986 293.38,1.04 Z M298.48,1.04 C298.48,1.3200014 298.380001,1.5699989 298.18,1.79 C297.979999,2.0100011 297.720002,2.12 297.4,2.12 C297.079998,2.12 296.820001,2.0100011 296.62,1.79 C296.419999,1.5699989 296.32,1.3200014 296.32,1.04 C296.32,0.7599986 296.419999,0.5100011 296.62,0.29 C296.820001,0.0699989 297.079998,-0.04 297.4,-0.04 C297.720002,-0.04 297.979999,0.0699989 298.18,0.29 C298.380001,0.5100011 298.48,0.7599986 298.48,1.04 Z M303.58,1.04 C303.58,1.3200014 303.480001,1.5699989 303.28,1.79 C303.079999,2.0100011 302.820002,2.12 302.5,2.12 C302.179998,2.12 301.920001,2.0100011 301.72,1.79 C301.519999,1.5699989 301.42,1.3200014 301.42,1.04 C301.42,0.7599986 301.519999,0.5100011 301.72,0.29 C301.920001,0.0699989 302.179998,-0.04 302.5,-0.04 C302.820002,-0.04 303.079999,0.0699989 303.28,0.29 C303.480001,0.5100011 303.58,0.7599986 303.58,1.04 Z M308.68,1.04 C308.68,1.3200014 308.580001,1.5699989 308.38,1.79 C308.179999,2.0100011 307.920002,2.12 307.6,2.12 C307.279998,2.12 307.020001,2.0100011 306.82,1.79 C306.619999,1.5699989 306.52,1.3200014 306.52,1.04 C306.52,0.7599986 306.619999,0.5100011 306.82,0.29 C307.020001,0.0699989 307.279998,-0.04 307.6,-0.04 C307.920002,-0.04 308.179999,0.0699989 308.38,0.29 C308.580001,0.5100011 308.68,0.7599986 308.68,1.04 Z M313.78,1.04 C313.78,1.3200014 313.680001,1.5699989 313.48,1.79 C313.279999,2.0100011 313.020002,2.12 312.7,2.12 C312.379998,2.12 312.120001,2.0100011 311.92,1.79 C311.719999,1.5699989 311.62,1.3200014 311.62,1.04 C311.62,0.7599986 311.719999,0.5100011 311.92,0.29 C312.120001,0.0699989 312.379998,-0.04 312.7,-0.04 C313.020002,-0.04 313.279999,0.0699989 313.48,0.29 C313.680001,0.5100011 313.78,0.7599986 313.78,1.04 Z M318.88,1.04 C318.88,1.3200014 318.780001,1.5699989 318.58,1.79 C318.379999,2.0100011 318.120002,2.12 317.8,2.12 C317.479998,2.12 317.220001,2.0100011 317.02,1.79 C316.819999,1.5699989 316.72,1.3200014 316.72,1.04 C316.72,0.7599986 316.819999,0.5100011 317.02,0.29 C317.220001,0.0699989 317.479998,-0.04 317.8,-0.04 C318.120002,-0.04 318.379999,0.0699989 318.58,0.29 C318.780001,0.5100011 318.88,0.7599986 318.88,1.04 Z M323.98,1.04 C323.98,1.3200014 323.880001,1.5699989 323.68,1.79 C323.479999,2.0100011 323.220002,2.12 322.9,2.12 C322.579998,2.12 322.320001,2.0100011 322.12,1.79 C321.919999,1.5699989 321.82,1.3200014 321.82,1.04 C321.82,0.7599986 321.919999,0.5100011 322.12,0.29 C322.320001,0.0699989 322.579998,-0.04 322.9,-0.04 C323.220002,-0.04 323.479999,0.0699989 323.68,0.29 C323.880001,0.5100011 323.98,0.7599986 323.98,1.04 Z M329.08,1.04 C329.08,1.3200014 328.980001,1.5699989 328.78,1.79 C328.579999,2.0100011 328.320002,2.12 328,2.12 C327.679998,2.12 327.420001,2.0100011 327.22,1.79 C327.019999,1.5699989 326.92,1.3200014 326.92,1.04 C326.92,0.7599986 327.019999,0.5100011 327.22,0.29 C327.420001,0.0699989 327.679998,-0.04 328,-0.04 C328.320002,-0.04 328.579999,0.0699989 328.78,0.29 C328.980001,0.5100011 329.08,0.7599986 329.08,1.04 Z M334.18,1.04 C334.18,1.3200014 334.080001,1.5699989 333.88,1.79 C333.679999,2.0100011 333.420002,2.12 333.1,2.12 C332.779998,2.12 332.520001,2.0100011 332.32,1.79 C332.119999,1.5699989 332.02,1.3200014 332.02,1.04 C332.02,0.7599986 332.119999,0.5100011 332.32,0.29 C332.520001,0.0699989 332.779998,-0.04 333.1,-0.04 C333.420002,-0.04 333.679999,0.0699989 333.88,0.29 C334.080001,0.5100011 334.18,0.7599986 334.18,1.04 Z M339.28,1.04 C339.28,1.3200014 339.180001,1.5699989 338.98,1.79 C338.779999,2.0100011 338.520002,2.12 338.2,2.12 C337.879998,2.12 337.620001,2.0100011 337.42,1.79 C337.219999,1.5699989 337.12,1.3200014 337.12,1.04 C337.12,0.7599986 337.219999,0.5100011 337.42,0.29 C337.620001,0.0699989 337.879998,-0.04 338.2,-0.04 C338.520002,-0.04 338.779999,0.0699989 338.98,0.29 C339.180001,0.5100011 339.28,0.7599986 339.28,1.04 Z M344.38,1.04 C344.38,1.3200014 344.280001,1.5699989 344.08,1.79 C343.879999,2.0100011 343.620002,2.12 343.3,2.12 C342.979998,2.12 342.720001,2.0100011 342.52,1.79 C342.319999,1.5699989 342.22,1.3200014 342.22,1.04 C342.22,0.7599986 342.319999,0.5100011 342.52,0.29 C342.720001,0.0699989 342.979998,-0.04 343.3,-0.04 C343.620002,-0.04 343.879999,0.0699989 344.08,0.29 C344.280001,0.5100011 344.38,0.7599986 344.38,1.04 Z M349.48,1.04 C349.48,1.3200014 349.380001,1.5699989 349.18,1.79 C348.979999,2.0100011 348.720002,2.12 348.4,2.12 C348.079998,2.12 347.820001,2.0100011 347.62,1.79 C347.419999,1.5699989 347.32,1.3200014 347.32,1.04 C347.32,0.7599986 347.419999,0.5100011 347.62,0.29 C347.820001,0.0699989 348.079998,-0.04 348.4,-0.04 C348.720002,-0.04 348.979999,0.0699989 349.18,0.29 C349.380001,0.5100011 349.48,0.7599986 349.48,1.04 Z M354.58,1.04 C354.58,1.3200014 354.480001,1.5699989 354.28,1.79 C354.079999,2.0100011 353.820002,2.12 353.5,2.12 C353.179998,2.12 352.920001,2.0100011 352.72,1.79 C352.519999,1.5699989 352.42,1.3200014 352.42,1.04 C352.42,0.7599986 352.519999,0.5100011 352.72,0.29 C352.920001,0.0699989 353.179998,-0.04 353.5,-0.04 C353.820002,-0.04 354.079999,0.0699989 354.28,0.29 C354.480001,0.5100011 354.58,0.7599986 354.58,1.04 Z M359.68,1.04 C359.68,1.3200014 359.580001,1.5699989 359.38,1.79 C359.179999,2.0100011 358.920002,2.12 358.6,2.12 C358.279998,2.12 358.020001,2.0100011 357.82,1.79 C357.619999,1.5699989 357.52,1.3200014 357.52,1.04 C357.52,0.7599986 357.619999,0.5100011 357.82,0.29 C358.020001,0.0699989 358.279998,-0.04 358.6,-0.04 C358.920002,-0.04 359.179999,0.0699989 359.38,0.29 C359.580001,0.5100011 359.68,0.7599986 359.68,1.04 Z M364.78,1.04 C364.78,1.3200014 364.680001,1.5699989 364.48,1.79 C364.279999,2.0100011 364.020002,2.12 363.7,2.12 C363.379998,2.12 363.120001,2.0100011 362.92,1.79 C362.719999,1.5699989 362.62,1.3200014 362.62,1.04 C362.62,0.7599986 362.719999,0.5100011 362.92,0.29 C363.120001,0.0699989 363.379998,-0.04 363.7,-0.04 C364.020002,-0.04 364.279999,0.0699989 364.48,0.29 C364.680001,0.5100011 364.78,0.7599986 364.78,1.04 Z M369.88,1.04 C369.88,1.3200014 369.780001,1.5699989 369.58,1.79 C369.379999,2.0100011 369.120002,2.12 368.8,2.12 C368.479998,2.12 368.220001,2.0100011 368.02,1.79 C367.819999,1.5699989 367.72,1.3200014 367.72,1.04 C367.72,0.7599986 367.819999,0.5100011 368.02,0.29 C368.220001,0.0699989 368.479998,-0.04 368.8,-0.04 C369.120002,-0.04 369.379999,0.0699989 369.58,0.29 C369.780001,0.5100011 369.88,0.7599986 369.88,1.04 Z M374.98,1.04 C374.98,1.3200014 374.880001,1.5699989 374.68,1.79 C374.479999,2.0100011 374.220002,2.12 373.9,2.12 C373.579998,2.12 373.320001,2.0100011 373.12,1.79 C372.919999,1.5699989 372.82,1.3200014 372.82,1.04 C372.82,0.7599986 372.919999,0.5100011 373.12,0.29 C373.320001,0.0699989 373.579998,-0.04 373.9,-0.04 C374.220002,-0.04 374.479999,0.0699989 374.68,0.29 C374.880001,0.5100011 374.98,0.7599986 374.98,1.04 Z M380.08,1.04 C380.08,1.3200014 379.980001,1.5699989 379.78,1.79 C379.579999,2.0100011 379.320002,2.12 379,2.12 C378.679998,2.12 378.420001,2.0100011 378.22,1.79 C378.019999,1.5699989 377.92,1.3200014 377.92,1.04 C377.92,0.7599986 378.019999,0.5100011 378.22,0.29 C378.420001,0.0699989 378.679998,-0.04 379,-0.04 C379.320002,-0.04 379.579999,0.0699989 379.78,0.29 C379.980001,0.5100011 380.08,0.7599986 380.08,1.04 Z M385.18,1.04 C385.18,1.3200014 385.080001,1.5699989 384.88,1.79 C384.679999,2.0100011 384.420002,2.12 384.1,2.12 C383.779998,2.12 383.520001,2.0100011 383.32,1.79 C383.119999,1.5699989 383.02,1.3200014 383.02,1.04 C383.02,0.7599986 383.119999,0.5100011 383.32,0.29 C383.520001,0.0699989 383.779998,-0.04 384.1,-0.04 C384.420002,-0.04 384.679999,0.0699989 384.88,0.29 C385.080001,0.5100011 385.18,0.7599986 385.18,1.04 Z M390.28,1.04 C390.28,1.3200014 390.180001,1.5699989 389.98,1.79 C389.779999,2.0100011 389.520002,2.12 389.2,2.12 C388.879998,2.12 388.620001,2.0100011 388.42,1.79 C388.219999,1.5699989 388.12,1.3200014 388.12,1.04 C388.12,0.7599986 388.219999,0.5100011 388.42,0.29 C388.620001,0.0699989 388.879998,-0.04 389.2,-0.04 C389.520002,-0.04 389.779999,0.0699989 389.98,0.29 C390.180001,0.5100011 390.28,0.7599986 390.28,1.04 Z M395.38,1.04 C395.38,1.3200014 395.280001,1.5699989 395.08,1.79 C394.879999,2.0100011 394.620002,2.12 394.3,2.12 C393.979998,2.12 393.720001,2.0100011 393.52,1.79 C393.319999,1.5699989 393.22,1.3200014 393.22,1.04 C393.22,0.7599986 393.319999,0.5100011 393.52,0.29 C393.720001,0.0699989 393.979998,-0.04 394.3,-0.04 C394.620002,-0.04 394.879999,0.0699989 395.08,0.29 C395.280001,0.5100011 395.38,0.7599986 395.38,1.04 Z M400.48,1.04 C400.48,1.3200014 400.380001,1.5699989 400.18,1.79 C399.979999,2.0100011 399.720002,2.12 399.4,2.12 C399.079998,2.12 398.820001,2.0100011 398.62,1.79 C398.419999,1.5699989 398.32,1.3200014 398.32,1.04 C398.32,0.7599986 398.419999,0.5100011 398.62,0.29 C398.820001,0.0699989 399.079998,-0.04 399.4,-0.04 C399.720002,-0.04 399.979999,0.0699989 400.18,0.29 C400.380001,0.5100011 400.48,0.7599986 400.48,1.04 Z M405.58,1.04 C405.58,1.3200014 405.480001,1.5699989 405.28,1.79 C405.079999,2.0100011 404.820002,2.12 404.5,2.12 C404.179998,2.12 403.920001,2.0100011 403.72,1.79 C403.519999,1.5699989 403.42,1.3200014 403.42,1.04 C403.42,0.7599986 403.519999,0.5100011 403.72,0.29 C403.920001,0.0699989 404.179998,-0.04 404.5,-0.04 C404.820002,-0.04 405.079999,0.0699989 405.28,0.29 C405.480001,0.5100011 405.58,0.7599986 405.58,1.04 Z M410.68,1.04 C410.68,1.3200014 410.580001,1.5699989 410.38,1.79 C410.179999,2.0100011 409.920002,2.12 409.6,2.12 C409.279998,2.12 409.020001,2.0100011 408.82,1.79 C408.619999,1.5699989 408.52,1.3200014 408.52,1.04 C408.52,0.7599986 408.619999,0.5100011 408.82,0.29 C409.020001,0.0699989 409.279998,-0.04 409.6,-0.04 C409.920002,-0.04 410.179999,0.0699989 410.38,0.29 C410.580001,0.5100011 410.68,0.7599986 410.68,1.04 Z M415.78,1.04 C415.78,1.3200014 415.680001,1.5699989 415.48,1.79 C415.279999,2.0100011 415.020002,2.12 414.7,2.12 C414.379998,2.12 414.120001,2.0100011 413.92,1.79 C413.719999,1.5699989 413.62,1.3200014 413.62,1.04 C413.62,0.7599986 413.719999,0.5100011 413.92,0.29 C414.120001,0.0699989 414.379998,-0.04 414.7,-0.04 C415.020002,-0.04 415.279999,0.0699989 415.48,0.29 C415.680001,0.5100011 415.78,0.7599986 415.78,1.04 Z M420.88,1.04 C420.88,1.3200014 420.780001,1.5699989 420.58,1.79 C420.379999,2.0100011 420.120002,2.12 419.8,2.12 C419.479998,2.12 419.220001,2.0100011 419.02,1.79 C418.819999,1.5699989 418.72,1.3200014 418.72,1.04 C418.72,0.7599986 418.819999,0.5100011 419.02,0.29 C419.220001,0.0699989 419.479998,-0.04 419.8,-0.04 C420.120002,-0.04 420.379999,0.0699989 420.58,0.29 C420.780001,0.5100011 420.88,0.7599986 420.88,1.04 Z M425.98,1.04 C425.98,1.3200014 425.880001,1.5699989 425.68,1.79 C425.479999,2.0100011 425.220002,2.12 424.9,2.12 C424.579998,2.12 424.320001,2.0100011 424.12,1.79 C423.919999,1.5699989 423.82,1.3200014 423.82,1.04 C423.82,0.7599986 423.919999,0.5100011 424.12,0.29 C424.320001,0.0699989 424.579998,-0.04 424.9,-0.04 C425.220002,-0.04 425.479999,0.0699989 425.68,0.29 C425.880001,0.5100011 425.98,0.7599986 425.98,1.04 Z M431.08,1.04 C431.08,1.3200014 430.980001,1.5699989 430.78,1.79 C430.579999,2.0100011 430.320002,2.12 430,2.12 C429.679998,2.12 429.420001,2.0100011 429.22,1.79 C429.019999,1.5699989 428.92,1.3200014 428.92,1.04 C428.92,0.7599986 429.019999,0.5100011 429.22,0.29 C429.420001,0.0699989 429.679998,-0.04 430,-0.04 C430.320002,-0.04 430.579999,0.0699989 430.78,0.29 C430.980001,0.5100011 431.08,0.7599986 431.08,1.04 Z M436.18,1.04 C436.18,1.3200014 436.080001,1.5699989 435.88,1.79 C435.679999,2.0100011 435.420002,2.12 435.1,2.12 C434.779998,2.12 434.520001,2.0100011 434.32,1.79 C434.119999,1.5699989 434.02,1.3200014 434.02,1.04 C434.02,0.7599986 434.119999,0.5100011 434.32,0.29 C434.520001,0.0699989 434.779998,-0.04 435.1,-0.04 C435.420002,-0.04 435.679999,0.0699989 435.88,0.29 C436.080001,0.5100011 436.18,0.7599986 436.18,1.04 Z M441.28,1.04 C441.28,1.3200014 441.180001,1.5699989 440.98,1.79 C440.779999,2.0100011 440.520002,2.12 440.2,2.12 C439.879998,2.12 439.620001,2.0100011 439.42,1.79 C439.219999,1.5699989 439.12,1.3200014 439.12,1.04 C439.12,0.7599986 439.219999,0.5100011 439.42,0.29 C439.620001,0.0699989 439.879998,-0.04 440.2,-0.04 C440.520002,-0.04 440.779999,0.0699989 440.98,0.29 C441.180001,0.5100011 441.28,0.7599986 441.28,1.04 Z M446.38,1.04 C446.38,1.3200014 446.280001,1.5699989 446.08,1.79 C445.879999,2.0100011 445.620002,2.12 445.3,2.12 C444.979998,2.12 444.720001,2.0100011 444.52,1.79 C444.319999,1.5699989 444.22,1.3200014 444.22,1.04 C444.22,0.7599986 444.319999,0.5100011 444.52,0.29 C444.720001,0.0699989 444.979998,-0.04 445.3,-0.04 C445.620002,-0.04 445.879999,0.0699989 446.08,0.29 C446.280001,0.5100011 446.38,0.7599986 446.38,1.04 Z M451.48,1.04 C451.48,1.3200014 451.380001,1.5699989 451.18,1.79 C450.979999,2.0100011 450.720002,2.12 450.4,2.12 C450.079998,2.12 449.820001,2.0100011 449.62,1.79 C449.419999,1.5699989 449.32,1.3200014 449.32,1.04 C449.32,0.7599986 449.419999,0.5100011 449.62,0.29 C449.820001,0.0699989 450.079998,-0.04 450.4,-0.04 C450.720002,-0.04 450.979999,0.0699989 451.18,0.29 C451.380001,0.5100011 451.48,0.7599986 451.48,1.04 Z M456.58,1.04 C456.58,1.3200014 456.480001,1.5699989 456.28,1.79 C456.079999,2.0100011 455.820002,2.12 455.5,2.12 C455.179998,2.12 454.920001,2.0100011 454.72,1.79 C454.519999,1.5699989 454.42,1.3200014 454.42,1.04 C454.42,0.7599986 454.519999,0.5100011 454.72,0.29 C454.920001,0.0699989 455.179998,-0.04 455.5,-0.04 C455.820002,-0.04 456.079999,0.0699989 456.28,0.29 C456.480001,0.5100011 456.58,0.7599986 456.58,1.04 Z M461.68,1.04 C461.68,1.3200014 461.580001,1.5699989 461.38,1.79 C461.179999,2.0100011 460.920002,2.12 460.6,2.12 C460.279998,2.12 460.020001,2.0100011 459.82,1.79 C459.619999,1.5699989 459.52,1.3200014 459.52,1.04 C459.52,0.7599986 459.619999,0.5100011 459.82,0.29 C460.020001,0.0699989 460.279998,-0.04 460.6,-0.04 C460.920002,-0.04 461.179999,0.0699989 461.38,0.29 C461.580001,0.5100011 461.68,0.7599986 461.68,1.04 Z M466.78,1.04 C466.78,1.3200014 466.680001,1.5699989 466.48,1.79 C466.279999,2.0100011 466.020002,2.12 465.7,2.12 C465.379998,2.12 465.120001,2.0100011 464.92,1.79 C464.719999,1.5699989 464.62,1.3200014 464.62,1.04 C464.62,0.7599986 464.719999,0.5100011 464.92,0.29 C465.120001,0.0699989 465.379998,-0.04 465.7,-0.04 C466.020002,-0.04 466.279999,0.0699989 466.48,0.29 C466.680001,0.5100011 466.78,0.7599986 466.78,1.04 Z M471.88,1.04 C471.88,1.3200014 471.780001,1.5699989 471.58,1.79 C471.379999,2.0100011 471.120002,2.12 470.8,2.12 C470.479998,2.12 470.220001,2.0100011 470.02,1.79 C469.819999,1.5699989 469.72,1.3200014 469.72,1.04 C469.72,0.7599986 469.819999,0.5100011 470.02,0.29 C470.220001,0.0699989 470.479998,-0.04 470.8,-0.04 C471.120002,-0.04 471.379999,0.0699989 471.58,0.29 C471.780001,0.5100011 471.88,0.7599986 471.88,1.04 Z M476.98,1.04 C476.98,1.3200014 476.880001,1.5699989 476.68,1.79 C476.479999,2.0100011 476.220002,2.12 475.9,2.12 C475.579998,2.12 475.320001,2.0100011 475.12,1.79 C474.919999,1.5699989 474.82,1.3200014 474.82,1.04 C474.82,0.7599986 474.919999,0.5100011 475.12,0.29 C475.320001,0.0699989 475.579998,-0.04 475.9,-0.04 C476.220002,-0.04 476.479999,0.0699989 476.68,0.29 C476.880001,0.5100011 476.98,0.7599986 476.98,1.04 Z M482.08,1.04 C482.08,1.3200014 481.980001,1.5699989 481.78,1.79 C481.579999,2.0100011 481.320002,2.12 481,2.12 C480.679998,2.12 480.420001,2.0100011 480.22,1.79 C480.019999,1.5699989 479.92,1.3200014 479.92,1.04 C479.92,0.7599986 480.019999,0.5100011 480.22,0.29 C480.420001,0.0699989 480.679998,-0.04 481,-0.04 C481.320002,-0.04 481.579999,0.0699989 481.78,0.29 C481.980001,0.5100011 482.08,0.7599986 482.08,1.04 Z M487.18,1.04 C487.18,1.3200014 487.080001,1.5699989 486.88,1.79 C486.679999,2.0100011 486.420002,2.12 486.1,2.12 C485.779998,2.12 485.520001,2.0100011 485.32,1.79 C485.119999,1.5699989 485.02,1.3200014 485.02,1.04 C485.02,0.7599986 485.119999,0.5100011 485.32,0.29 C485.520001,0.0699989 485.779998,-0.04 486.1,-0.04 C486.420002,-0.04 486.679999,0.0699989 486.88,0.29 C487.080001,0.5100011 487.18,0.7599986 487.18,1.04 Z M492.28,1.04 C492.28,1.3200014 492.180001,1.5699989 491.98,1.79 C491.779999,2.0100011 491.520002,2.12 491.2,2.12 C490.879998,2.12 490.620001,2.0100011 490.42,1.79 C490.219999,1.5699989 490.12,1.3200014 490.12,1.04 C490.12,0.7599986 490.219999,0.5100011 490.42,0.29 C490.620001,0.0699989 490.879998,-0.04 491.2,-0.04 C491.520002,-0.04 491.779999,0.0699989 491.98,0.29 C492.180001,0.5100011 492.28,0.7599986 492.28,1.04 Z M497.38,1.04 C497.38,1.3200014 497.280001,1.5699989 497.08,1.79 C496.879999,2.0100011 496.620002,2.12 496.3,2.12 C495.979998,2.12 495.720001,2.0100011 495.52,1.79 C495.319999,1.5699989 495.22,1.3200014 495.22,1.04 C495.22,0.7599986 495.319999,0.5100011 495.52,0.29 C495.720001,0.0699989 495.979998,-0.04 496.3,-0.04 C496.620002,-0.04 496.879999,0.0699989 497.08,0.29 C497.280001,0.5100011 497.38,0.7599986 497.38,1.04 Z M502.48,1.04 C502.48,1.3200014 502.380001,1.5699989 502.18,1.79 C501.979999,2.0100011 501.720002,2.12 501.4,2.12 C501.079998,2.12 500.820001,2.0100011 500.62,1.79 C500.419999,1.5699989 500.32,1.3200014 500.32,1.04 C500.32,0.7599986 500.419999,0.5100011 500.62,0.29 C500.820001,0.0699989 501.079998,-0.04 501.4,-0.04 C501.720002,-0.04 501.979999,0.0699989 502.18,0.29 C502.380001,0.5100011 502.48,0.7599986 502.48,1.04 Z M507.58,1.04 C507.58,1.3200014 507.480001,1.5699989 507.28,1.79 C507.079999,2.0100011 506.820002,2.12 506.5,2.12 C506.179998,2.12 505.920001,2.0100011 505.72,1.79 C505.519999,1.5699989 505.42,1.3200014 505.42,1.04 C505.42,0.7599986 505.519999,0.5100011 505.72,0.29 C505.920001,0.0699989 506.179998,-0.04 506.5,-0.04 C506.820002,-0.04 507.079999,0.0699989 507.28,0.29 C507.480001,0.5100011 507.58,0.7599986 507.58,1.04 Z M512.68,1.04 C512.68,1.3200014 512.580001,1.5699989 512.38,1.79 C512.179999,2.0100011 511.920002,2.12 511.6,2.12 C511.279998,2.12 511.020001,2.0100011 510.82,1.79 C510.619999,1.5699989 510.52,1.3200014 510.52,1.04 C510.52,0.7599986 510.619999,0.5100011 510.82,0.29 C511.020001,0.0699989 511.279998,-0.04 511.6,-0.04 C511.920002,-0.04 512.179999,0.0699989 512.38,0.29 C512.580001,0.5100011 512.68,0.7599986 512.68,1.04 Z M517.78,1.04 C517.78,1.3200014 517.680001,1.5699989 517.48,1.79 C517.279999,2.0100011 517.020002,2.12 516.7,2.12 C516.379998,2.12 516.120001,2.0100011 515.92,1.79 C515.719999,1.5699989 515.62,1.3200014 515.62,1.04 C515.62,0.7599986 515.719999,0.5100011 515.92,0.29 C516.120001,0.0699989 516.379998,-0.04 516.7,-0.04 C517.020002,-0.04 517.279999,0.0699989 517.48,0.29 C517.680001,0.5100011 517.78,0.7599986 517.78,1.04 Z M522.88,1.04 C522.88,1.3200014 522.780001,1.5699989 522.58,1.79 C522.379999,2.0100011 522.120002,2.12 521.8,2.12 C521.479998,2.12 521.220001,2.0100011 521.02,1.79 C520.819999,1.5699989 520.72,1.3200014 520.72,1.04 C520.72,0.7599986 520.819999,0.5100011 521.02,0.29 C521.220001,0.0699989 521.479998,-0.04 521.8,-0.04 C522.120002,-0.04 522.379999,0.0699989 522.58,0.29 C522.780001,0.5100011 522.88,0.7599986 522.88,1.04 Z M527.98,1.04 C527.98,1.3200014 527.880001,1.5699989 527.68,1.79 C527.479999,2.0100011 527.220002,2.12 526.9,2.12 C526.579998,2.12 526.320001,2.0100011 526.12,1.79 C525.919999,1.5699989 525.82,1.3200014 525.82,1.04 C525.82,0.7599986 525.919999,0.5100011 526.12,0.29 C526.320001,0.0699989 526.579998,-0.04 526.9,-0.04 C527.220002,-0.04 527.479999,0.0699989 527.68,0.29 C527.880001,0.5100011 527.98,0.7599986 527.98,1.04 Z M533.08,1.04 C533.08,1.3200014 532.980001,1.5699989 532.78,1.79 C532.579999,2.0100011 532.320002,2.12 532,2.12 C531.679998,2.12 531.420001,2.0100011 531.22,1.79 C531.019999,1.5699989 530.92,1.3200014 530.92,1.04 C530.92,0.7599986 531.019999,0.5100011 531.22,0.29 C531.420001,0.0699989 531.679998,-0.04 532,-0.04 C532.320002,-0.04 532.579999,0.0699989 532.78,0.29 C532.980001,0.5100011 533.08,0.7599986 533.08,1.04 Z M538.18,1.04 C538.18,1.3200014 538.080001,1.5699989 537.88,1.79 C537.679999,2.0100011 537.420002,2.12 537.1,2.12 C536.779998,2.12 536.520001,2.0100011 536.32,1.79 C536.119999,1.5699989 536.02,1.3200014 536.02,1.04 C536.02,0.7599986 536.119999,0.5100011 536.32,0.29 C536.520001,0.0699989 536.779998,-0.04 537.1,-0.04 C537.420002,-0.04 537.679999,0.0699989 537.88,0.29 C538.080001,0.5100011 538.18,0.7599986 538.18,1.04 Z M543.28,1.04 C543.28,1.3200014 543.180001,1.5699989 542.98,1.79 C542.779999,2.0100011 542.520002,2.12 542.2,2.12 C541.879998,2.12 541.620001,2.0100011 541.42,1.79 C541.219999,1.5699989 541.12,1.3200014 541.12,1.04 C541.12,0.7599986 541.219999,0.5100011 541.42,0.29 C541.620001,0.0699989 541.879998,-0.04 542.2,-0.04 C542.520002,-0.04 542.779999,0.0699989 542.98,0.29 C543.180001,0.5100011 543.28,0.7599986 543.28,1.04 Z M548.38,1.04 C548.38,1.3200014 548.280001,1.5699989 548.08,1.79 C547.879999,2.0100011 547.620002,2.12 547.3,2.12 C546.979998,2.12 546.720001,2.0100011 546.52,1.79 C546.319999,1.5699989 546.22,1.3200014 546.22,1.04 C546.22,0.7599986 546.319999,0.5100011 546.52,0.29 C546.720001,0.0699989 546.979998,-0.04 547.3,-0.04 C547.620002,-0.04 547.879999,0.0699989 548.08,0.29 C548.280001,0.5100011 548.38,0.7599986 548.38,1.04 Z M553.48,1.04 C553.48,1.3200014 553.380001,1.5699989 553.18,1.79 C552.979999,2.0100011 552.720002,2.12 552.4,2.12 C552.079998,2.12 551.820001,2.0100011 551.62,1.79 C551.419999,1.5699989 551.32,1.3200014 551.32,1.04 C551.32,0.7599986 551.419999,0.5100011 551.62,0.29 C551.820001,0.0699989 552.079998,-0.04 552.4,-0.04 C552.720002,-0.04 552.979999,0.0699989 553.18,0.29 C553.380001,0.5100011 553.48,0.7599986 553.48,1.04 Z M558.58,1.04 C558.58,1.3200014 558.480001,1.5699989 558.28,1.79 C558.079999,2.0100011 557.820002,2.12 557.5,2.12 C557.179998,2.12 556.920001,2.0100011 556.72,1.79 C556.519999,1.5699989 556.42,1.3200014 556.42,1.04 C556.42,0.7599986 556.519999,0.5100011 556.72,0.29 C556.920001,0.0699989 557.179998,-0.04 557.5,-0.04 C557.820002,-0.04 558.079999,0.0699989 558.28,0.29 C558.480001,0.5100011 558.58,0.7599986 558.58,1.04 Z M563.68,1.04 C563.68,1.3200014 563.580001,1.5699989 563.38,1.79 C563.179999,2.0100011 562.920002,2.12 562.6,2.12 C562.279998,2.12 562.020001,2.0100011 561.82,1.79 C561.619999,1.5699989 561.52,1.3200014 561.52,1.04 C561.52,0.7599986 561.619999,0.5100011 561.82,0.29 C562.020001,0.0699989 562.279998,-0.04 562.6,-0.04 C562.920002,-0.04 563.179999,0.0699989 563.38,0.29 C563.580001,0.5100011 563.68,0.7599986 563.68,1.04 Z M568.78,1.04 C568.78,1.3200014 568.680001,1.5699989 568.48,1.79 C568.279999,2.0100011 568.020002,2.12 567.7,2.12 C567.379998,2.12 567.120001,2.0100011 566.92,1.79 C566.719999,1.5699989 566.62,1.3200014 566.62,1.04 C566.62,0.7599986 566.719999,0.5100011 566.92,0.29 C567.120001,0.0699989 567.379998,-0.04 567.7,-0.04 C568.020002,-0.04 568.279999,0.0699989 568.48,0.29 C568.680001,0.5100011 568.78,0.7599986 568.78,1.04 Z M573.88,1.04 C573.88,1.3200014 573.780001,1.5699989 573.58,1.79 C573.379999,2.0100011 573.120002,2.12 572.8,2.12 C572.479998,2.12 572.220001,2.0100011 572.02,1.79 C571.819999,1.5699989 571.72,1.3200014 571.72,1.04 C571.72,0.7599986 571.819999,0.5100011 572.02,0.29 C572.220001,0.0699989 572.479998,-0.04 572.8,-0.04 C573.120002,-0.04 573.379999,0.0699989 573.58,0.29 C573.780001,0.5100011 573.88,0.7599986 573.88,1.04 Z M578.98,1.04 C578.98,1.3200014 578.880001,1.5699989 578.68,1.79 C578.479999,2.0100011 578.220002,2.12 577.9,2.12 C577.579998,2.12 577.320001,2.0100011 577.12,1.79 C576.919999,1.5699989 576.82,1.3200014 576.82,1.04 C576.82,0.7599986 576.919999,0.5100011 577.12,0.29 C577.320001,0.0699989 577.579998,-0.04 577.9,-0.04 C578.220002,-0.04 578.479999,0.0699989 578.68,0.29 C578.880001,0.5100011 578.98,0.7599986 578.98,1.04 Z M584.08,1.04 C584.08,1.3200014 583.980001,1.5699989 583.78,1.79 C583.579999,2.0100011 583.320002,2.12 583,2.12 C582.679998,2.12 582.420001,2.0100011 582.22,1.79 C582.019999,1.5699989 581.92,1.3200014 581.92,1.04 C581.92,0.7599986 582.019999,0.5100011 582.22,0.29 C582.420001,0.0699989 582.679998,-0.04 583,-0.04 C583.320002,-0.04 583.579999,0.0699989 583.78,0.29 C583.980001,0.5100011 584.08,0.7599986 584.08,1.04 Z M589.18,1.04 C589.18,1.3200014 589.080001,1.5699989 588.88,1.79 C588.679999,2.0100011 588.420002,2.12 588.1,2.12 C587.779998,2.12 587.520001,2.0100011 587.32,1.79 C587.119999,1.5699989 587.02,1.3200014 587.02,1.04 C587.02,0.7599986 587.119999,0.5100011 587.32,0.29 C587.520001,0.0699989 587.779998,-0.04 588.1,-0.04 C588.420002,-0.04 588.679999,0.0699989 588.88,0.29 C589.080001,0.5100011 589.18,0.7599986 589.18,1.04 Z M594.28,1.04 C594.28,1.3200014 594.180001,1.5699989 593.98,1.79 C593.779999,2.0100011 593.520002,2.12 593.2,2.12 C592.879998,2.12 592.620001,2.0100011 592.42,1.79 C592.219999,1.5699989 592.12,1.3200014 592.12,1.04 C592.12,0.7599986 592.219999,0.5100011 592.42,0.29 C592.620001,0.0699989 592.879998,-0.04 593.2,-0.04 C593.520002,-0.04 593.779999,0.0699989 593.98,0.29 C594.180001,0.5100011 594.28,0.7599986 594.28,1.04 Z M599.38,1.04 C599.38,1.3200014 599.280001,1.5699989 599.08,1.79 C598.879999,2.0100011 598.620002,2.12 598.3,2.12 C597.979998,2.12 597.720001,2.0100011 597.52,1.79 C597.319999,1.5699989 597.22,1.3200014 597.22,1.04 C597.22,0.7599986 597.319999,0.5100011 597.52,0.29 C597.720001,0.0699989 597.979998,-0.04 598.3,-0.04 C598.620002,-0.04 598.879999,0.0699989 599.08,0.29 C599.280001,0.5100011 599.38,0.7599986 599.38,1.04 Z M604.48,1.04 C604.48,1.3200014 604.380001,1.5699989 604.18,1.79 C603.979999,2.0100011 603.720002,2.12 603.4,2.12 C603.079998,2.12 602.820001,2.0100011 602.62,1.79 C602.419999,1.5699989 602.32,1.3200014 602.32,1.04 C602.32,0.7599986 602.419999,0.5100011 602.62,0.29 C602.820001,0.0699989 603.079998,-0.04 603.4,-0.04 C603.720002,-0.04 603.979999,0.0699989 604.18,0.29 C604.380001,0.5100011 604.48,0.7599986 604.48,1.04 Z M609.58,1.04 C609.58,1.3200014 609.480001,1.5699989 609.28,1.79 C609.079999,2.0100011 608.820002,2.12 608.5,2.12 C608.179998,2.12 607.920001,2.0100011 607.72,1.79 C607.519999,1.5699989 607.42,1.3200014 607.42,1.04 C607.42,0.7599986 607.519999,0.5100011 607.72,0.29 C607.920001,0.0699989 608.179998,-0.04 608.5,-0.04 C608.820002,-0.04 609.079999,0.0699989 609.28,0.29 C609.480001,0.5100011 609.58,0.7599986 609.58,1.04 Z M614.68,1.04 C614.68,1.3200014 614.580001,1.5699989 614.38,1.79 C614.179999,2.0100011 613.920002,2.12 613.6,2.12 C613.279998,2.12 613.020001,2.0100011 612.82,1.79 C612.619999,1.5699989 612.52,1.3200014 612.52,1.04 C612.52,0.7599986 612.619999,0.5100011 612.82,0.29 C613.020001,0.0699989 613.279998,-0.04 613.6,-0.04 C613.920002,-0.04 614.179999,0.0699989 614.38,0.29 C614.580001,0.5100011 614.68,0.7599986 614.68,1.04 Z M619.78,1.04 C619.78,1.3200014 619.680001,1.5699989 619.48,1.79 C619.279999,2.0100011 619.020002,2.12 618.7,2.12 C618.379998,2.12 618.120001,2.0100011 617.92,1.79 C617.719999,1.5699989 617.62,1.3200014 617.62,1.04 C617.62,0.7599986 617.719999,0.5100011 617.92,0.29 C618.120001,0.0699989 618.379998,-0.04 618.7,-0.04 C619.020002,-0.04 619.279999,0.0699989 619.48,0.29 C619.680001,0.5100011 619.78,0.7599986 619.78,1.04 Z M624.88,1.04 C624.88,1.3200014 624.780001,1.5699989 624.58,1.79 C624.379999,2.0100011 624.120002,2.12 623.8,2.12 C623.479998,2.12 623.220001,2.0100011 623.02,1.79 C622.819999,1.5699989 622.72,1.3200014 622.72,1.04 C622.72,0.7599986 622.819999,0.5100011 623.02,0.29 C623.220001,0.0699989 623.479998,-0.04 623.8,-0.04 C624.120002,-0.04 624.379999,0.0699989 624.58,0.29 C624.780001,0.5100011 624.88,0.7599986 624.88,1.04 Z M629.98,1.04 C629.98,1.3200014 629.880001,1.5699989 629.68,1.79 C629.479999,2.0100011 629.220002,2.12 628.9,2.12 C628.579998,2.12 628.320001,2.0100011 628.12,1.79 C627.919999,1.5699989 627.82,1.3200014 627.82,1.04 C627.82,0.7599986 627.919999,0.5100011 628.12,0.29 C628.320001,0.0699989 628.579998,-0.04 628.9,-0.04 C629.220002,-0.04 629.479999,0.0699989 629.68,0.29 C629.880001,0.5100011 629.98,0.7599986 629.98,1.04 Z M635.08,1.04 C635.08,1.3200014 634.980001,1.5699989 634.78,1.79 C634.579999,2.0100011 634.320002,2.12 634,2.12 C633.679998,2.12 633.420001,2.0100011 633.22,1.79 C633.019999,1.5699989 632.92,1.3200014 632.92,1.04 C632.92,0.7599986 633.019999,0.5100011 633.22,0.29 C633.420001,0.0699989 633.679998,-0.04 634,-0.04 C634.320002,-0.04 634.579999,0.0699989 634.78,0.29 C634.980001,0.5100011 635.08,0.7599986 635.08,1.04 Z M640.18,1.04 C640.18,1.3200014 640.080001,1.5699989 639.88,1.79 C639.679999,2.0100011 639.420002,2.12 639.1,2.12 C638.779998,2.12 638.520001,2.0100011 638.32,1.79 C638.119999,1.5699989 638.02,1.3200014 638.02,1.04 C638.02,0.7599986 638.119999,0.5100011 638.32,0.29 C638.520001,0.0699989 638.779998,-0.04 639.1,-0.04 C639.420002,-0.04 639.679999,0.0699989 639.88,0.29 C640.080001,0.5100011 640.18,0.7599986 640.18,1.04 Z M645.28,1.04 C645.28,1.3200014 645.180001,1.5699989 644.98,1.79 C644.779999,2.0100011 644.520002,2.12 644.2,2.12 C643.879998,2.12 643.620001,2.0100011 643.42,1.79 C643.219999,1.5699989 643.12,1.3200014 643.12,1.04 C643.12,0.7599986 643.219999,0.5100011 643.42,0.29 C643.620001,0.0699989 643.879998,-0.04 644.2,-0.04 C644.520002,-0.04 644.779999,0.0699989 644.98,0.29 C645.180001,0.5100011 645.28,0.7599986 645.28,1.04 Z M650.38,1.04 C650.38,1.3200014 650.280001,1.5699989 650.08,1.79 C649.879999,2.0100011 649.620002,2.12 649.3,2.12 C648.979998,2.12 648.720001,2.0100011 648.52,1.79 C648.319999,1.5699989 648.22,1.3200014 648.22,1.04 C648.22,0.7599986 648.319999,0.5100011 648.52,0.29 C648.720001,0.0699989 648.979998,-0.04 649.3,-0.04 C649.620002,-0.04 649.879999,0.0699989 650.08,0.29 C650.280001,0.5100011 650.38,0.7599986 650.38,1.04 Z M655.48,1.04 C655.48,1.3200014 655.380001,1.5699989 655.18,1.79 C654.979999,2.0100011 654.720002,2.12 654.4,2.12 C654.079998,2.12 653.820001,2.0100011 653.62,1.79 C653.419999,1.5699989 653.32,1.3200014 653.32,1.04 C653.32,0.7599986 653.419999,0.5100011 653.62,0.29 C653.820001,0.0699989 654.079998,-0.04 654.4,-0.04 C654.720002,-0.04 654.979999,0.0699989 655.18,0.29 C655.380001,0.5100011 655.48,0.7599986 655.48,1.04 Z M660.58,1.04 C660.58,1.3200014 660.480001,1.5699989 660.28,1.79 C660.079999,2.0100011 659.820002,2.12 659.5,2.12 C659.179998,2.12 658.920001,2.0100011 658.72,1.79 C658.519999,1.5699989 658.42,1.3200014 658.42,1.04 C658.42,0.7599986 658.519999,0.5100011 658.72,0.29 C658.920001,0.0699989 659.179998,-0.04 659.5,-0.04 C659.820002,-0.04 660.079999,0.0699989 660.28,0.29 C660.480001,0.5100011 660.58,0.7599986 660.58,1.04 Z M665.68,1.04 C665.68,1.3200014 665.580001,1.5699989 665.38,1.79 C665.179999,2.0100011 664.920002,2.12 664.6,2.12 C664.279998,2.12 664.020001,2.0100011 663.82,1.79 C663.619999,1.5699989 663.52,1.3200014 663.52,1.04 C663.52,0.7599986 663.619999,0.5100011 663.82,0.29 C664.020001,0.0699989 664.279998,-0.04 664.6,-0.04 C664.920002,-0.04 665.179999,0.0699989 665.38,0.29 C665.580001,0.5100011 665.68,0.7599986 665.68,1.04 Z M670.78,1.04 C670.78,1.3200014 670.680001,1.5699989 670.48,1.79 C670.279999,2.0100011 670.020002,2.12 669.7,2.12 C669.379998,2.12 669.120001,2.0100011 668.92,1.79 C668.719999,1.5699989 668.62,1.3200014 668.62,1.04 C668.62,0.7599986 668.719999,0.5100011 668.92,0.29 C669.120001,0.0699989 669.379998,-0.04 669.7,-0.04 C670.020002,-0.04 670.279999,0.0699989 670.48,0.29 C670.680001,0.5100011 670.78,0.7599986 670.78,1.04 Z M675.88,1.04 C675.88,1.3200014 675.780001,1.5699989 675.58,1.79 C675.379999,2.0100011 675.120002,2.12 674.8,2.12 C674.479998,2.12 674.220001,2.0100011 674.02,1.79 C673.819999,1.5699989 673.72,1.3200014 673.72,1.04 C673.72,0.7599986 673.819999,0.5100011 674.02,0.29 C674.220001,0.0699989 674.479998,-0.04 674.8,-0.04 C675.120002,-0.04 675.379999,0.0699989 675.58,0.29 C675.780001,0.5100011 675.88,0.7599986 675.88,1.04 Z M680.98,1.04 C680.98,1.3200014 680.880001,1.5699989 680.68,1.79 C680.479999,2.0100011 680.220002,2.12 679.9,2.12 C679.579998,2.12 679.320001,2.0100011 679.12,1.79 C678.919999,1.5699989 678.82,1.3200014 678.82,1.04 C678.82,0.7599986 678.919999,0.5100011 679.12,0.29 C679.320001,0.0699989 679.579998,-0.04 679.9,-0.04 C680.220002,-0.04 680.479999,0.0699989 680.68,0.29 C680.880001,0.5100011 680.98,0.7599986 680.98,1.04 Z M686.08,1.04 C686.08,1.3200014 685.980001,1.5699989 685.78,1.79 C685.579999,2.0100011 685.320002,2.12 685,2.12 C684.679998,2.12 684.420001,2.0100011 684.22,1.79 C684.019999,1.5699989 683.92,1.3200014 683.92,1.04 C683.92,0.7599986 684.019999,0.5100011 684.22,0.29 C684.420001,0.0699989 684.679998,-0.04 685,-0.04 C685.320002,-0.04 685.579999,0.0699989 685.78,0.29 C685.980001,0.5100011 686.08,0.7599986 686.08,1.04 Z M691.18,1.04 C691.18,1.3200014 691.080001,1.5699989 690.88,1.79 C690.679999,2.0100011 690.420002,2.12 690.1,2.12 C689.779998,2.12 689.520001,2.0100011 689.32,1.79 C689.119999,1.5699989 689.02,1.3200014 689.02,1.04 C689.02,0.7599986 689.119999,0.5100011 689.32,0.29 C689.520001,0.0699989 689.779998,-0.04 690.1,-0.04 C690.420002,-0.04 690.679999,0.0699989 690.88,0.29 C691.080001,0.5100011 691.18,0.7599986 691.18,1.04 Z M696.28,1.04 C696.28,1.3200014 696.180001,1.5699989 695.98,1.79 C695.779999,2.0100011 695.520002,2.12 695.2,2.12 C694.879998,2.12 694.620001,2.0100011 694.42,1.79 C694.219999,1.5699989 694.12,1.3200014 694.12,1.04 C694.12,0.7599986 694.219999,0.5100011 694.42,0.29 C694.620001,0.0699989 694.879998,-0.04 695.2,-0.04 C695.520002,-0.04 695.779999,0.0699989 695.98,0.29 C696.180001,0.5100011 696.28,0.7599986 696.28,1.04 Z M701.38,1.04 C701.38,1.3200014 701.280001,1.5699989 701.08,1.79 C700.879999,2.0100011 700.620002,2.12 700.3,2.12 C699.979998,2.12 699.720001,2.0100011 699.52,1.79 C699.319999,1.5699989 699.22,1.3200014 699.22,1.04 C699.22,0.7599986 699.319999,0.5100011 699.52,0.29 C699.720001,0.0699989 699.979998,-0.04 700.3,-0.04 C700.620002,-0.04 700.879999,0.0699989 701.08,0.29 C701.280001,0.5100011 701.38,0.7599986 701.38,1.04 Z M706.48,1.04 C706.48,1.3200014 706.380001,1.5699989 706.18,1.79 C705.979999,2.0100011 705.720002,2.12 705.4,2.12 C705.079998,2.12 704.820001,2.0100011 704.62,1.79 C704.419999,1.5699989 704.32,1.3200014 704.32,1.04 C704.32,0.7599986 704.419999,0.5100011 704.62,0.29 C704.820001,0.0699989 705.079998,-0.04 705.4,-0.04 C705.720002,-0.04 705.979999,0.0699989 706.18,0.29 C706.380001,0.5100011 706.48,0.7599986 706.48,1.04 Z M711.58,1.04 C711.58,1.3200014 711.480001,1.5699989 711.28,1.79 C711.079999,2.0100011 710.820002,2.12 710.5,2.12 C710.179998,2.12 709.920001,2.0100011 709.72,1.79 C709.519999,1.5699989 709.42,1.3200014 709.42,1.04 C709.42,0.7599986 709.519999,0.5100011 709.72,0.29 C709.920001,0.0699989 710.179998,-0.04 710.5,-0.04 C710.820002,-0.04 711.079999,0.0699989 711.28,0.29 C711.480001,0.5100011 711.58,0.7599986 711.58,1.04 Z M716.68,1.04 C716.68,1.3200014 716.580001,1.5699989 716.38,1.79 C716.179999,2.0100011 715.920002,2.12 715.6,2.12 C715.279998,2.12 715.020001,2.0100011 714.82,1.79 C714.619999,1.5699989 714.52,1.3200014 714.52,1.04 C714.52,0.7599986 714.619999,0.5100011 714.82,0.29 C715.020001,0.0699989 715.279998,-0.04 715.6,-0.04 C715.920002,-0.04 716.179999,0.0699989 716.38,0.29 C716.580001,0.5100011 716.68,0.7599986 716.68,1.04 Z M721.78,1.04 C721.78,1.3200014 721.680001,1.5699989 721.48,1.79 C721.279999,2.0100011 721.020002,2.12 720.7,2.12 C720.379998,2.12 720.120001,2.0100011 719.92,1.79 C719.719999,1.5699989 719.62,1.3200014 719.62,1.04 C719.62,0.7599986 719.719999,0.5100011 719.92,0.29 C720.120001,0.0699989 720.379998,-0.04 720.7,-0.04 C721.020002,-0.04 721.279999,0.0699989 721.48,0.29 C721.680001,0.5100011 721.78,0.7599986 721.78,1.04 Z M726.88,1.04 C726.88,1.3200014 726.780001,1.5699989 726.58,1.79 C726.379999,2.0100011 726.120002,2.12 725.8,2.12 C725.479998,2.12 725.220001,2.0100011 725.02,1.79 C724.819999,1.5699989 724.72,1.3200014 724.72,1.04 C724.72,0.7599986 724.819999,0.5100011 725.02,0.29 C725.220001,0.0699989 725.479998,-0.04 725.8,-0.04 C726.120002,-0.04 726.379999,0.0699989 726.58,0.29 C726.780001,0.5100011 726.88,0.7599986 726.88,1.04 Z M731.98,1.04 C731.98,1.3200014 731.880001,1.5699989 731.68,1.79 C731.479999,2.0100011 731.220002,2.12 730.9,2.12 C730.579998,2.12 730.320001,2.0100011 730.12,1.79 C729.919999,1.5699989 729.82,1.3200014 729.82,1.04 C729.82,0.7599986 729.919999,0.5100011 730.12,0.29 C730.320001,0.0699989 730.579998,-0.04 730.9,-0.04 C731.220002,-0.04 731.479999,0.0699989 731.68,0.29 C731.880001,0.5100011 731.98,0.7599986 731.98,1.04 Z M737.08,1.04 C737.08,1.3200014 736.980001,1.5699989 736.78,1.79 C736.579999,2.0100011 736.320002,2.12 736,2.12 C735.679998,2.12 735.420001,2.0100011 735.22,1.79 C735.019999,1.5699989 734.92,1.3200014 734.92,1.04 C734.92,0.7599986 735.019999,0.5100011 735.22,0.29 C735.420001,0.0699989 735.679998,-0.04 736,-0.04 C736.320002,-0.04 736.579999,0.0699989 736.78,0.29 C736.980001,0.5100011 737.08,0.7599986 737.08,1.04 Z M742.18,1.04 C742.18,1.3200014 742.080001,1.5699989 741.88,1.79 C741.679999,2.0100011 741.420002,2.12 741.1,2.12 C740.779998,2.12 740.520001,2.0100011 740.32,1.79 C740.119999,1.5699989 740.02,1.3200014 740.02,1.04 C740.02,0.7599986 740.119999,0.5100011 740.32,0.29 C740.520001,0.0699989 740.779998,-0.04 741.1,-0.04 C741.420002,-0.04 741.679999,0.0699989 741.88,0.29 C742.080001,0.5100011 742.18,0.7599986 742.18,1.04 Z M747.28,1.04 C747.28,1.3200014 747.180001,1.5699989 746.98,1.79 C746.779999,2.0100011 746.520002,2.12 746.2,2.12 C745.879998,2.12 745.620001,2.0100011 745.42,1.79 C745.219999,1.5699989 745.12,1.3200014 745.12,1.04 C745.12,0.7599986 745.219999,0.5100011 745.42,0.29 C745.620001,0.0699989 745.879998,-0.04 746.2,-0.04 C746.520002,-0.04 746.779999,0.0699989 746.98,0.29 C747.180001,0.5100011 747.28,0.7599986 747.28,1.04 Z M752.38,1.04 C752.38,1.3200014 752.280001,1.5699989 752.08,1.79 C751.879999,2.0100011 751.620002,2.12 751.3,2.12 C750.979998,2.12 750.720001,2.0100011 750.52,1.79 C750.319999,1.5699989 750.22,1.3200014 750.22,1.04 C750.22,0.7599986 750.319999,0.5100011 750.52,0.29 C750.720001,0.0699989 750.979998,-0.04 751.3,-0.04 C751.620002,-0.04 751.879999,0.0699989 752.08,0.29 C752.280001,0.5100011 752.38,0.7599986 752.38,1.04 Z M757.48,1.04 C757.48,1.3200014 757.380001,1.5699989 757.18,1.79 C756.979999,2.0100011 756.720002,2.12 756.4,2.12 C756.079998,2.12 755.820001,2.0100011 755.62,1.79 C755.419999,1.5699989 755.32,1.3200014 755.32,1.04 C755.32,0.7599986 755.419999,0.5100011 755.62,0.29 C755.820001,0.0699989 756.079998,-0.04 756.4,-0.04 C756.720002,-0.04 756.979999,0.0699989 757.18,0.29 C757.380001,0.5100011 757.48,0.7599986 757.48,1.04 Z M762.58,1.04 C762.58,1.3200014 762.480001,1.5699989 762.28,1.79 C762.079999,2.0100011 761.820002,2.12 761.5,2.12 C761.179998,2.12 760.920001,2.0100011 760.72,1.79 C760.519999,1.5699989 760.42,1.3200014 760.42,1.04 C760.42,0.7599986 760.519999,0.5100011 760.72,0.29 C760.920001,0.0699989 761.179998,-0.04 761.5,-0.04 C761.820002,-0.04 762.079999,0.0699989 762.28,0.29 C762.480001,0.5100011 762.58,0.7599986 762.58,1.04 Z M767.68,1.04 C767.68,1.3200014 767.580001,1.5699989 767.38,1.79 C767.179999,2.0100011 766.920002,2.12 766.6,2.12 C766.279998,2.12 766.020001,2.0100011 765.82,1.79 C765.619999,1.5699989 765.52,1.3200014 765.52,1.04 C765.52,0.7599986 765.619999,0.5100011 765.82,0.29 C766.020001,0.0699989 766.279998,-0.04 766.6,-0.04 C766.920002,-0.04 767.179999,0.0699989 767.38,0.29 C767.580001,0.5100011 767.68,0.7599986 767.68,1.04 Z M772.78,1.04 C772.78,1.3200014 772.680001,1.5699989 772.48,1.79 C772.279999,2.0100011 772.020002,2.12 771.7,2.12 C771.379998,2.12 771.120001,2.0100011 770.92,1.79 C770.719999,1.5699989 770.62,1.3200014 770.62,1.04 C770.62,0.7599986 770.719999,0.5100011 770.92,0.29 C771.120001,0.0699989 771.379998,-0.04 771.7,-0.04 C772.020002,-0.04 772.279999,0.0699989 772.48,0.29 C772.680001,0.5100011 772.78,0.7599986 772.78,1.04 Z M777.88,1.04 C777.88,1.3200014 777.780001,1.5699989 777.58,1.79 C777.379999,2.0100011 777.120002,2.12 776.8,2.12 C776.479998,2.12 776.220001,2.0100011 776.02,1.79 C775.819999,1.5699989 775.72,1.3200014 775.72,1.04 C775.72,0.7599986 775.819999,0.5100011 776.02,0.29 C776.220001,0.0699989 776.479998,-0.04 776.8,-0.04 C777.120002,-0.04 777.379999,0.0699989 777.58,0.29 C777.780001,0.5100011 777.88,0.7599986 777.88,1.04 Z M782.98,1.04 C782.98,1.3200014 782.880001,1.5699989 782.68,1.79 C782.479999,2.0100011 782.220002,2.12 781.9,2.12 C781.579998,2.12 781.320001,2.0100011 781.12,1.79 C780.919999,1.5699989 780.82,1.3200014 780.82,1.04 C780.82,0.7599986 780.919999,0.5100011 781.12,0.29 C781.320001,0.0699989 781.579998,-0.04 781.9,-0.04 C782.220002,-0.04 782.479999,0.0699989 782.68,0.29 C782.880001,0.5100011 782.98,0.7599986 782.98,1.04 Z M788.08,1.04 C788.08,1.3200014 787.980001,1.5699989 787.78,1.79 C787.579999,2.0100011 787.320002,2.12 787,2.12 C786.679998,2.12 786.420001,2.0100011 786.22,1.79 C786.019999,1.5699989 785.92,1.3200014 785.92,1.04 C785.92,0.7599986 786.019999,0.5100011 786.22,0.29 C786.420001,0.0699989 786.679998,-0.04 787,-0.04 C787.320002,-0.04 787.579999,0.0699989 787.78,0.29 C787.980001,0.5100011 788.08,0.7599986 788.08,1.04 Z M793.18,1.04 C793.18,1.3200014 793.080001,1.5699989 792.88,1.79 C792.679999,2.0100011 792.420002,2.12 792.1,2.12 C791.779998,2.12 791.520001,2.0100011 791.32,1.79 C791.119999,1.5699989 791.02,1.3200014 791.02,1.04 C791.02,0.7599986 791.119999,0.5100011 791.32,0.29 C791.520001,0.0699989 791.779998,-0.04 792.1,-0.04 C792.420002,-0.04 792.679999,0.0699989 792.88,0.29 C793.080001,0.5100011 793.18,0.7599986 793.18,1.04 Z M798.28,1.04 C798.28,1.3200014 798.180001,1.5699989 797.98,1.79 C797.779999,2.0100011 797.520002,2.12 797.2,2.12 C796.879998,2.12 796.620001,2.0100011 796.42,1.79 C796.219999,1.5699989 796.12,1.3200014 796.12,1.04 C796.12,0.7599986 796.219999,0.5100011 796.42,0.29 C796.620001,0.0699989 796.879998,-0.04 797.2,-0.04 C797.520002,-0.04 797.779999,0.0699989 797.98,0.29 C798.180001,0.5100011 798.28,0.7599986 798.28,1.04 Z M803.38,1.04 C803.38,1.3200014 803.280001,1.5699989 803.08,1.79 C802.879999,2.0100011 802.620002,2.12 802.3,2.12 C801.979998,2.12 801.720001,2.0100011 801.52,1.79 C801.319999,1.5699989 801.22,1.3200014 801.22,1.04 C801.22,0.7599986 801.319999,0.5100011 801.52,0.29 C801.720001,0.0699989 801.979998,-0.04 802.3,-0.04 C802.620002,-0.04 802.879999,0.0699989 803.08,0.29 C803.280001,0.5100011 803.38,0.7599986 803.38,1.04 Z M808.48,1.04 C808.48,1.3200014 808.380001,1.5699989 808.18,1.79 C807.979999,2.0100011 807.720002,2.12 807.4,2.12 C807.079998,2.12 806.820001,2.0100011 806.62,1.79 C806.419999,1.5699989 806.32,1.3200014 806.32,1.04 C806.32,0.7599986 806.419999,0.5100011 806.62,0.29 C806.820001,0.0699989 807.079998,-0.04 807.4,-0.04 C807.720002,-0.04 807.979999,0.0699989 808.18,0.29 C808.380001,0.5100011 808.48,0.7599986 808.48,1.04 Z M813.58,1.04 C813.58,1.3200014 813.480001,1.5699989 813.28,1.79 C813.079999,2.0100011 812.820002,2.12 812.5,2.12 C812.179998,2.12 811.920001,2.0100011 811.72,1.79 C811.519999,1.5699989 811.42,1.3200014 811.42,1.04 C811.42,0.7599986 811.519999,0.5100011 811.72,0.29 C811.920001,0.0699989 812.179998,-0.04 812.5,-0.04 C812.820002,-0.04 813.079999,0.0699989 813.28,0.29 C813.480001,0.5100011 813.58,0.7599986 813.58,1.04 Z M818.68,1.04 C818.68,1.3200014 818.580001,1.5699989 818.38,1.79 C818.179999,2.0100011 817.920002,2.12 817.6,2.12 C817.279998,2.12 817.020001,2.0100011 816.82,1.79 C816.619999,1.5699989 816.52,1.3200014 816.52,1.04 C816.52,0.7599986 816.619999,0.5100011 816.82,0.29 C817.020001,0.0699989 817.279998,-0.04 817.6,-0.04 C817.920002,-0.04 818.179999,0.0699989 818.38,0.29 C818.580001,0.5100011 818.68,0.7599986 818.68,1.04 Z M823.78,1.04 C823.78,1.3200014 823.680001,1.5699989 823.48,1.79 C823.279999,2.0100011 823.020002,2.12 822.7,2.12 C822.379998,2.12 822.120001,2.0100011 821.92,1.79 C821.719999,1.5699989 821.62,1.3200014 821.62,1.04 C821.62,0.7599986 821.719999,0.5100011 821.92,0.29 C822.120001,0.0699989 822.379998,-0.04 822.7,-0.04 C823.020002,-0.04 823.279999,0.0699989 823.48,0.29 C823.680001,0.5100011 823.78,0.7599986 823.78,1.04 Z"/>
</svg>
